<?xml version="1.0" encoding="UTF-8" standalone="no"?>
<!-- Created with Inkscape (http://www.inkscape.org/) -->

<svg
   xmlns:dc="http://purl.org/dc/elements/1.1/"
   xmlns:cc="http://creativecommons.org/ns#"
   xmlns:rdf="http://www.w3.org/1999/02/22-rdf-syntax-ns#"
   xmlns:svg="http://www.w3.org/2000/svg"
   xmlns="http://www.w3.org/2000/svg"
   version="1.1"
   width="1000"
   height="332.76407"
   id="svg3020"
   xml:space="preserve"><metadata
     id="metadata3026"><rdf:RDF><cc:Work
         rdf:about=""><dc:format>image/svg+xml</dc:format><dc:type
           rdf:resource="http://purl.org/dc/dcmitype/StillImage" /><dc:title></dc:title></cc:Work></rdf:RDF></metadata><defs
     id="defs3024"><clipPath
       id="clipPath3038"><path
         d="m 920.594,41.466 80.036,0 0,64.318 -80.036,0 0,-64.318 z"
         id="path3040" /></clipPath><clipPath
       id="clipPath3046"><path
         d="m 932.823,99.8 0,-53.89 53.063,0 0,53.89"
         id="path3048" /></clipPath><clipPath
       id="clipPath3154"><path
         d="m 198.425,333.691 326.071,0 0,119.852 -326.071,0 0,-119.852 z"
         id="path3156" /></clipPath><clipPath
       id="clipPath3162"><path
         d="m -416.982,341.999 2202.418,0 0,667.49 -2202.418,0 0,-667.49 z"
         id="path3164" /></clipPath><clipPath
       id="clipPath3206"><path
         d="m 605.45,240.148 109.253,0 0,48.098 -109.253,0 0,-48.098 z"
         id="path3208" /></clipPath><clipPath
       id="clipPath3214"><path
         d="m 429.364,253.212 647.77,0 0,196.32 -647.77,0 0,-196.32 z"
         id="path3216" /></clipPath></defs><g
     transform="matrix(3.2414315,0,0,-3.2414315,-671.49722,1441.3317)"
     id="g3028"><g
       clip-path="url(#clipPath3154)"
       id="g3152"><g
         id="g3386"><g
           id="g3304"><g
             id="g3223"><g
               transform="translate(347.7732,383.175)"
               id="g3166"><path
                 d="m 0,0 c 0,-2.951 -2.392,-5.343 -5.343,-5.343 l -32.054,0 c -2.949,0 -5.341,2.392 -5.341,5.343 l 0,32.052 c 0,2.949 2.392,5.345 5.341,5.345 l 32.054,0 C -2.392,37.397 0,35.001 0,32.052"
                 id="path3168"
                 style="fill:#438394;fill-opacity:1;fill-rule:nonzero;stroke:none" /></g><g
               transform="translate(299.7908,387.3961)"
               id="g3170"><path
                 d="M 0,0 -0.046,0 C -0.775,11.14 -10.044,19.951 -21.369,19.951 -32.696,19.951 -41.961,11.14 -42.691,0 l -0.045,0 0,42.738 L 0,42.738 0,0"
                 id="path3172"
                 style="fill:#83d6e8;fill-opacity:1;fill-rule:nonzero;stroke:none" /></g><path
               d="m 207.161,401.919 42.736,0 0,42.74 -42.736,0 0,-42.74 z"
               id="path3174"
               style="fill:#a6e2ee;fill-opacity:1;fill-rule:nonzero;stroke:none" /><g
               transform="translate(228.5267,341.9994)"
               id="g3176"><path
                 d="m 0,0 c -11.803,0 -21.366,9.566 -21.366,21.369 0,11.805 9.563,21.369 21.366,21.369 11.803,0 21.371,-9.564 21.371,-21.369 C 21.371,9.566 11.803,0 0,0"
                 id="path3178"
                 style="fill:#d1d0d0;fill-opacity:1;fill-rule:nonzero;stroke:none" /></g><g
               transform="scale(1,-1)"
               id="text3180"><path
                 d="m 304.90005,-366.67224 c 0,0.50151 0.034,0.95201 0.102,1.3515 0.0765,0.39951 0.20825,0.73951 0.39525,1.02 0.19549,0.28051 0.46324,0.49726 0.80325,0.65025 0.34849,0.14451 0.79899,0.21676 1.3515,0.21675 0.39099,10e-6 0.73524,-0.0425 1.03275,-0.1275 0.29749,-0.0935 0.58224,-0.28474 0.85425,-0.57375 l 0.95625,0.8925 c -0.38251,0.408 -0.81601,0.70125 -1.3005,0.87975 -0.48451,0.1785 -0.99876,0.26775 -1.54275,0.26775 -0.73951,0 -1.37276,-0.1105 -1.89975,-0.3315 -0.5185,-0.221 -0.9435,-0.53125 -1.275,-0.93075 -0.3315,-0.39949 -0.578,-0.87549 -0.7395,-1.428 -0.153,-0.56099 -0.2295,-1.18149 -0.2295,-1.8615 l 0,-0.47175 c 0,-0.64599 0.0892,-1.22399 0.26775,-1.734 0.187,-0.51849 0.45475,-0.95624 0.80325,-1.31325 0.357,-0.35699 0.7905,-0.62899 1.3005,-0.816 0.51849,-0.18699 1.10924,-0.28049 1.77225,-0.2805 0.51849,1e-5 1.02424,0.085 1.51725,0.255 0.49299,0.17001 0.92649,0.44626 1.3005,0.82875 l -0.969,0.98175 c -0.27201,-0.27199 -0.55251,-0.45899 -0.8415,-0.561 -0.28901,-0.10199 -0.62476,-0.15299 -1.00725,-0.153 -0.90951,10e-6 -1.58101,0.24226 -2.0145,0.72675 -0.425,0.47601 -0.6375,1.17301 -0.6375,2.091 l 0,0.42075"
                 id="path3107"
                 style="font-size:12.75px;font-variant:normal;font-weight:normal;writing-mode:lr-tb;fill:#656263;fill-opacity:1;fill-rule:nonzero;stroke:none;font-family:Casper Bold;-inkscape-font-specification:Casper" /><path
                 d="m 312.84331,-365.02749 c 0,0.24651 0.0298,0.47601 0.0893,0.6885 0.068,0.20401 0.17425,0.38251 0.31875,0.5355 0.153,0.14451 0.35275,0.25926 0.59925,0.34425 0.2465,0.085 0.5525,0.12751 0.918,0.1275 0.32299,1e-5 0.57374,-0.0467 0.75225,-0.14025 0.17849,-0.0935 0.36974,-0.23799 0.57375,-0.4335 l 1.1475,0.47175 c -0.27201,0.459 -0.63326,0.799 -1.08375,1.02 -0.45051,0.2125 -0.93501,0.31875 -1.4535,0.31875 -1.0625,0 -1.87,-0.27625 -2.4225,-0.82875 -0.5525,-0.55249 -0.82875,-1.36849 -0.82875,-2.448 l 0,-0.14025 c 0,-0.11049 0,-0.21674 0,-0.31875 0,-0.10199 0.004,-0.19974 0.0128,-0.29325 0.017,-0.40799 0.1105,-0.77774 0.2805,-1.10925 0.17,-0.33149 0.39525,-0.61624 0.67575,-0.85425 0.2805,-0.23799 0.6035,-0.42074 0.969,-0.54825 0.3655,-0.12749 0.75225,-0.19124 1.16025,-0.19125 0.46749,1e-5 0.88399,0.0765 1.2495,0.2295 0.36549,0.14451 0.67574,0.35276 0.93075,0.62475 0.25499,0.26351 0.44624,0.58651 0.57375,0.969 0.13599,0.37401 0.20399,0.79051 0.204,1.2495 l 0,0.72675 -4.6665,0 m 0,-1.18575 3.27675,0 c -10e-6,-0.20399 -0.0383,-0.39099 -0.11475,-0.561 -0.0765,-0.16999 -0.18701,-0.31449 -0.3315,-0.4335 -0.13601,-0.11899 -0.30176,-0.21249 -0.49725,-0.2805 -0.18701,-0.068 -0.39525,-0.10199 -0.62475,-0.102 -0.2125,10e-6 -0.42075,0.0255 -0.62475,0.0765 -0.204,0.051 -0.38675,0.13601 -0.54825,0.255 -0.1615,0.11051 -0.29325,0.25501 -0.39525,0.4335 -0.0935,0.17001 -0.14025,0.37401 -0.14025,0.612"
                 id="path3109"
                 style="font-size:12.75px;font-variant:normal;font-weight:normal;writing-mode:lr-tb;fill:#656263;fill-opacity:1;fill-rule:nonzero;stroke:none;font-family:Casper Bold;-inkscape-font-specification:Casper" /><path
                 d="m 321.6918,-367.60299 c -0.136,10e-6 -0.2805,0.017 -0.4335,0.051 -0.153,0.0255 -0.30175,0.0638 -0.44625,0.11475 -0.1445,0.051 -0.28475,0.11901 -0.42075,0.204 -0.1275,0.0765 -0.238,0.16576 -0.3315,0.26775 l 0,4.7175 -1.38975,0 0,-4.845 c 0,-0.22949 -0.017,-0.42924 -0.051,-0.59925 -0.034,-0.17849 -0.0978,-0.36549 -0.19125,-0.561 l 1.2495,-0.57375 c 0.068,0.11901 0.1275,0.23801 0.1785,0.357 0.051,0.11901 0.0935,0.25076 0.1275,0.39525 l 0.0765,0 c 0.1105,-0.11049 0.238,-0.21249 0.3825,-0.306 0.153,-0.0935 0.31025,-0.17424 0.47175,-0.24225 0.1615,-0.068 0.323,-0.11899 0.4845,-0.153 0.17,-0.034 0.32725,-0.051 0.47175,-0.051 0.3655,1e-5 0.697,0.051 0.9945,0.153 0.306,0.0935 0.5695,0.23376 0.7905,0.42075 0.221,0.18701 0.391,0.42501 0.51,0.714 0.1275,0.28051 0.19125,0.60351 0.19125,0.969 l 0,4.32225 -1.38975,0 0,-4.04175 c 0,-0.87549 -0.425,-1.31324 -1.275,-1.31325"
                 id="path3111"
                 style="font-size:12.75px;font-variant:normal;font-weight:normal;writing-mode:lr-tb;fill:#656263;fill-opacity:1;fill-rule:nonzero;stroke:none;font-family:Casper Bold;-inkscape-font-specification:Casper" /><path
                 d="m 325.54231,-367.52649 -0.72675,0 0,-1.1475 0.72675,0 0,-1.377 1.38975,-0.306 0,1.683 1.02,0 -0.357,1.1475 -0.663,0 0,3.42975 c 0,0.51001 0.2635,0.76501 0.7905,0.765 l 0.31875,0 0,1.0965 c -0.119,0.0425 -0.238,0.0765 -0.357,0.102 -0.1105,0.0255 -0.2295,0.0383 -0.357,0.0383 -0.238,0 -0.4675,-0.034 -0.6885,-0.102 -0.2125,-0.0595 -0.3995,-0.15725 -0.561,-0.29325 -0.1615,-0.136 -0.29325,-0.31025 -0.39525,-0.52275 -0.0935,-0.22099 -0.14025,-0.48449 -0.14025,-0.7905 l 0,-3.723"
                 id="path3113"
                 style="font-size:12.75px;font-variant:normal;font-weight:normal;writing-mode:lr-tb;fill:#656263;fill-opacity:1;fill-rule:nonzero;stroke:none;font-family:Casper Bold;-inkscape-font-specification:Casper" /><path
                 d="m 330.48931,-368.02374 c 0.1615,-0.25499 0.3485,-0.45049 0.561,-0.5865 0.2125,-0.14449 0.476,-0.21674 0.7905,-0.21675 0.3315,1e-5 0.68425,0.0935 1.05825,0.2805 l -0.4845,1.28775 c -0.2125,-0.12749 -0.42075,-0.19124 -0.62475,-0.19125 -0.272,1e-5 -0.493,0.0765 -0.663,0.2295 -0.17,0.14451 -0.30175,0.33151 -0.39525,0.561 -0.0935,0.22101 -0.15725,0.45901 -0.19125,0.714 -0.034,0.25501 -0.051,0.48451 -0.051,0.6885 l 0,3.009 -1.38975,0 0,-4.845 c 0,-0.22949 -0.017,-0.43349 -0.051,-0.612 -0.034,-0.18699 -0.0978,-0.36974 -0.19125,-0.54825 l 1.2495,-0.57375 c 0.068,0.12751 0.1275,0.25926 0.1785,0.39525 0.0595,0.12751 0.102,0.26351 0.1275,0.408 l 0.0765,0"
                 id="path3115"
                 style="font-size:12.75px;font-variant:normal;font-weight:normal;writing-mode:lr-tb;fill:#656263;fill-opacity:1;fill-rule:nonzero;stroke:none;font-family:Casper Bold;-inkscape-font-specification:Casper" /><path
                 d="m 334.81154,-365.02749 c 0,0.24651 0.0298,0.47601 0.0892,0.6885 0.068,0.20401 0.17425,0.38251 0.31875,0.5355 0.153,0.14451 0.35275,0.25926 0.59925,0.34425 0.2465,0.085 0.5525,0.12751 0.918,0.1275 0.323,1e-5 0.57375,-0.0467 0.75225,-0.14025 0.1785,-0.0935 0.36975,-0.23799 0.57375,-0.4335 l 1.1475,0.47175 c -0.27201,0.459 -0.63326,0.799 -1.08375,1.02 -0.4505,0.2125 -0.935,0.31875 -1.4535,0.31875 -1.0625,0 -1.87,-0.27625 -2.4225,-0.82875 -0.5525,-0.55249 -0.82875,-1.36849 -0.82875,-2.448 l 0,-0.14025 c 0,-0.11049 0,-0.21674 0,-0.31875 0,-0.10199 0.004,-0.19974 0.0128,-0.29325 0.017,-0.40799 0.1105,-0.77774 0.2805,-1.10925 0.17,-0.33149 0.39525,-0.61624 0.67575,-0.85425 0.2805,-0.23799 0.6035,-0.42074 0.969,-0.54825 0.3655,-0.12749 0.75225,-0.19124 1.16025,-0.19125 0.4675,1e-5 0.884,0.0765 1.2495,0.2295 0.36549,0.14451 0.67574,0.35276 0.93075,0.62475 0.25499,0.26351 0.44624,0.58651 0.57375,0.969 0.13599,0.37401 0.20399,0.79051 0.204,1.2495 l 0,0.72675 -4.6665,0 m 0,-1.18575 3.27675,0 c 0,-0.20399 -0.0382,-0.39099 -0.11475,-0.561 -0.0765,-0.16999 -0.187,-0.31449 -0.3315,-0.4335 -0.136,-0.11899 -0.30175,-0.21249 -0.49725,-0.2805 -0.187,-0.068 -0.39525,-0.10199 -0.62475,-0.102 -0.2125,10e-6 -0.42075,0.0255 -0.62475,0.0765 -0.204,0.051 -0.38675,0.13601 -0.54825,0.255 -0.1615,0.11051 -0.29325,0.25501 -0.39525,0.4335 -0.0935,0.17001 -0.14025,0.37401 -0.14025,0.612"
                 id="path3117"
                 style="font-size:12.75px;font-variant:normal;font-weight:normal;writing-mode:lr-tb;fill:#656263;fill-opacity:1;fill-rule:nonzero;stroke:none;font-family:Casper Bold;-inkscape-font-specification:Casper" /><path
                 d="m 348.73455,-367.29699 c -0.18701,-0.11049 -0.40376,-0.18699 -0.65025,-0.2295 -0.23801,-0.0425 -0.46326,-0.0637 -0.67575,-0.0637 -0.34001,1e-5 -0.62901,0.0468 -0.867,0.14025 -0.22951,0.0935 -0.42076,0.22526 -0.57375,0.39525 -0.14451,0.17001 -0.25076,0.37401 -0.31875,0.612 -0.0595,0.23801 -0.0893,0.49726 -0.0892,0.77775 l 0,0.47175 c -10e-6,0.23801 0.017,0.47176 0.051,0.70125 0.034,0.22101 0.0977,0.41651 0.19125,0.5865 0.10199,0.17001 0.23799,0.31026 0.408,0.42075 0.16999,0.10201 0.39099,0.15301 0.663,0.153 0.17849,10e-6 0.35274,-0.0297 0.52275,-0.0892 0.17849,-0.0595 0.34849,-0.13599 0.51,-0.2295 0.16149,-0.10199 0.31024,-0.21249 0.44625,-0.3315 0.14449,-0.11899 0.27199,-0.24224 0.3825,-0.36975 l 0,-2.94525 m 0,-3.58275 1.38975,-0.3825 0,7.548 c -10e-6,0.16151 0.008,0.30601 0.0255,0.4335 0.017,0.12751 0.0382,0.2465 0.0637,0.357 0.034,0.102 0.0722,0.2125 0.11475,0.3315 0.0425,0.1105 0.0977,0.22525 0.16575,0.34425 l -1.46625,0 c -0.051,-0.085 -0.10201,-0.19975 -0.153,-0.34425 -0.034,-0.153 -0.0595,-0.289 -0.0765,-0.408 -0.25501,0.255 -0.54826,0.47175 -0.87975,0.65025 -0.32301,0.17 -0.67151,0.255 -1.0455,0.255 -0.44201,0 -0.83301,-0.0722 -1.173,-0.21675 -0.33151,-0.1445 -0.61201,-0.34425 -0.8415,-0.59925 -0.22951,-0.25499 -0.40376,-0.55674 -0.52275,-0.90525 -0.1105,-0.35699 -0.16575,-0.73949 -0.16575,-1.1475 l 0,-0.612 c 0,-1.07949 0.28474,-1.89124 0.85425,-2.43525 0.56949,-0.54399 1.39824,-0.81599 2.48625,-0.816 0.41649,10e-6 0.82449,0.0808 1.224,0.24225 l 0,-2.295"
                 id="path3119"
                 style="font-size:12.75px;font-variant:normal;font-weight:normal;writing-mode:lr-tb;fill:#656263;fill-opacity:1;fill-rule:nonzero;stroke:none;font-family:Casper Bold;-inkscape-font-specification:Casper" /><path
                 d="m 352.4193,-365.02749 c 0,0.24651 0.0297,0.47601 0.0892,0.6885 0.068,0.20401 0.17425,0.38251 0.31875,0.5355 0.153,0.14451 0.35275,0.25926 0.59925,0.34425 0.24649,0.085 0.55249,0.12751 0.918,0.1275 0.32299,1e-5 0.57374,-0.0467 0.75225,-0.14025 0.17849,-0.0935 0.36974,-0.23799 0.57375,-0.4335 l 1.1475,0.47175 c -0.27201,0.459 -0.63326,0.799 -1.08375,1.02 -0.45051,0.2125 -0.93501,0.31875 -1.4535,0.31875 -1.0625,0 -1.87,-0.27625 -2.4225,-0.82875 -0.5525,-0.55249 -0.82875,-1.36849 -0.82875,-2.448 l 0,-0.14025 c 0,-0.11049 0,-0.21674 0,-0.31875 0,-0.10199 0.004,-0.19974 0.0128,-0.29325 0.017,-0.40799 0.1105,-0.77774 0.2805,-1.10925 0.17,-0.33149 0.39525,-0.61624 0.67575,-0.85425 0.2805,-0.23799 0.6035,-0.42074 0.969,-0.54825 0.36549,-0.12749 0.75224,-0.19124 1.16025,-0.19125 0.46749,1e-5 0.88399,0.0765 1.2495,0.2295 0.36549,0.14451 0.67574,0.35276 0.93075,0.62475 0.25499,0.26351 0.44624,0.58651 0.57375,0.969 0.13599,0.37401 0.20399,0.79051 0.204,1.2495 l 0,0.72675 -4.6665,0 m 0,-1.18575 3.27675,0 c -1e-5,-0.20399 -0.0383,-0.39099 -0.11475,-0.561 -0.0765,-0.16999 -0.18701,-0.31449 -0.3315,-0.4335 -0.13601,-0.11899 -0.30176,-0.21249 -0.49725,-0.2805 -0.18701,-0.068 -0.39526,-0.10199 -0.62475,-0.102 -0.21251,10e-6 -0.42076,0.0255 -0.62475,0.0765 -0.20401,0.051 -0.38675,0.13601 -0.54825,0.255 -0.1615,0.11051 -0.29325,0.25501 -0.39525,0.4335 -0.0935,0.17001 -0.14025,0.37401 -0.14025,0.612"
                 id="path3121"
                 style="font-size:12.75px;font-variant:normal;font-weight:normal;writing-mode:lr-tb;fill:#656263;fill-opacity:1;fill-rule:nonzero;stroke:none;font-family:Casper Bold;-inkscape-font-specification:Casper" /><path
                 d="m 365.0673,-365.55024 c -0.0935,-0.11899 -0.2125,-0.20399 -0.357,-0.255 -0.1445,-0.051 -0.289,-0.0765 -0.4335,-0.0765 l -0.8415,0 0,3.63375 -1.44075,0 0,-8.86125 4.182,0 c 0.374,10e-6 0.71825,0.0595 1.03275,0.1785 0.3145,0.11901 0.58225,0.29326 0.80325,0.52275 0.2295,0.22101 0.408,0.48876 0.5355,0.80325 0.1275,0.30601 0.19125,0.65026 0.19125,1.03275 0,0.76501 -0.1955,1.39401 -0.5865,1.887 -0.3825,0.48451 -0.93075,0.75226 -1.64475,0.80325 l 1.683,2.12925 c 0.136,0.17001 0.25925,0.28051 0.36975,0.3315 0.1105,0.051 0.272,0.0765 0.4845,0.0765 l 0,1.0965 c -0.085,0.0425 -0.187,0.0765 -0.306,0.102 -0.119,0.034 -0.2295,0.051 -0.3315,0.051 -0.255,0 -0.4845,-0.085 -0.6885,-0.255 -0.204,-0.1785 -0.37825,-0.36125 -0.52275,-0.54825 l -2.12925,-2.652 m -1.632,-1.6575 2.38425,0 c 0.544,10e-6 0.9265,-0.0977 1.1475,-0.29325 0.221,-0.20399 0.3315,-0.56099 0.3315,-1.071 0,-0.40799 -0.102,-0.70974 -0.306,-0.90525 -0.1955,-0.20399 -0.5355,-0.30599 -1.02,-0.306 l -2.53725,0 0,2.5755"
                 id="path3123"
                 style="font-size:12.75px;font-variant:normal;font-weight:normal;writing-mode:lr-tb;fill:#656263;fill-opacity:1;fill-rule:nonzero;stroke:none;font-family:Casper Bold;-inkscape-font-specification:Casper" /><path
                 d="m 371.53154,-365.02749 c 0,0.24651 0.0297,0.47601 0.0892,0.6885 0.068,0.20401 0.17425,0.38251 0.31875,0.5355 0.153,0.14451 0.35275,0.25926 0.59925,0.34425 0.2465,0.085 0.5525,0.12751 0.918,0.1275 0.323,1e-5 0.57375,-0.0467 0.75225,-0.14025 0.1785,-0.0935 0.36975,-0.23799 0.57375,-0.4335 l 1.1475,0.47175 c -0.272,0.459 -0.63325,0.799 -1.08375,1.02 -0.4505,0.2125 -0.935,0.31875 -1.4535,0.31875 -1.0625,0 -1.87,-0.27625 -2.4225,-0.82875 -0.5525,-0.55249 -0.82875,-1.36849 -0.82875,-2.448 l 0,-0.14025 c 0,-0.11049 0,-0.21674 0,-0.31875 0,-0.10199 0.004,-0.19974 0.0127,-0.29325 0.017,-0.40799 0.1105,-0.77774 0.2805,-1.10925 0.17,-0.33149 0.39525,-0.61624 0.67575,-0.85425 0.2805,-0.23799 0.6035,-0.42074 0.969,-0.54825 0.3655,-0.12749 0.75225,-0.19124 1.16025,-0.19125 0.4675,1e-5 0.884,0.0765 1.2495,0.2295 0.3655,0.14451 0.67575,0.35276 0.93075,0.62475 0.255,0.26351 0.44625,0.58651 0.57375,0.969 0.13599,0.37401 0.20399,0.79051 0.204,1.2495 l 0,0.72675 -4.6665,0 m 0,-1.18575 3.27675,0 c 0,-0.20399 -0.0383,-0.39099 -0.11475,-0.561 -0.0765,-0.16999 -0.187,-0.31449 -0.3315,-0.4335 -0.136,-0.11899 -0.30175,-0.21249 -0.49725,-0.2805 -0.187,-0.068 -0.39525,-0.10199 -0.62475,-0.102 -0.2125,10e-6 -0.42075,0.0255 -0.62475,0.0765 -0.204,0.051 -0.38675,0.13601 -0.54825,0.255 -0.1615,0.11051 -0.29325,0.25501 -0.39525,0.4335 -0.0935,0.17001 -0.14025,0.37401 -0.14025,0.612"
                 id="path3125"
                 style="font-size:12.75px;font-variant:normal;font-weight:normal;writing-mode:lr-tb;fill:#656263;fill-opacity:1;fill-rule:nonzero;stroke:none;font-family:Casper Bold;-inkscape-font-specification:Casper" /><path
                 d="m 380.35457,-368.82699 c 0.38249,1e-5 0.76074,0.068 1.13475,0.204 0.37399,0.13601 0.69699,0.34001 0.969,0.612 l -0.867,0.85425 c -0.22951,-0.17849 -0.43776,-0.29324 -0.62475,-0.34425 -0.17851,-0.0595 -0.39951,-0.0892 -0.663,-0.0892 -0.64601,1e-5 -1.11776,0.16576 -1.41525,0.49725 -0.28901,0.32301 -0.43351,0.79476 -0.4335,1.41525 l 0,0.204 c -10e-6,0.33151 0.0297,0.62901 0.0892,0.8925 0.0595,0.26351 0.15724,0.48876 0.29325,0.67575 0.14449,0.17851 0.33574,0.31876 0.57375,0.42075 0.23799,0.10201 0.53549,0.15301 0.8925,0.153 0.26349,10e-6 0.50149,-0.0255 0.714,-0.0765 0.21249,-0.051 0.42499,-0.16149 0.6375,-0.3315 l 0.816,0.7905 c -0.28051,0.2975 -0.61201,0.51425 -0.9945,0.65025 -0.37401,0.136 -0.76501,0.204 -1.173,0.204 -0.55251,0 -1.02851,-0.0808 -1.428,-0.24225 -0.39951,-0.1615 -0.72676,-0.391 -0.98175,-0.6885 -0.25501,-0.29749 -0.44626,-0.65024 -0.57375,-1.05825 -0.11901,-0.40799 -0.17851,-0.86274 -0.1785,-1.36425 l 0,-0.24225 c -1e-5,-0.97749 0.28049,-1.74249 0.8415,-2.295 0.56949,-0.56099 1.35999,-0.84149 2.3715,-0.8415"
                 id="path3127"
                 style="font-size:12.75px;font-variant:normal;font-weight:normal;writing-mode:lr-tb;fill:#656263;fill-opacity:1;fill-rule:nonzero;stroke:none;font-family:Casper Bold;-inkscape-font-specification:Casper" /><path
                 d="m 386.79331,-368.67399 c 0.34849,1e-5 0.67149,0.0553 0.969,0.16575 0.30599,0.10201 0.56949,0.25076 0.7905,0.44625 0.22949,0.19551 0.40799,0.43351 0.5355,0.714 0.12749,0.28051 0.19124,0.59076 0.19125,0.93075 l 0,4.16925 -1.38975,0 0,-4.01625 c -1e-5,-0.40799 -0.10626,-0.70549 -0.31875,-0.8925 -0.20401,-0.18699 -0.47601,-0.28049 -0.816,-0.2805 -0.45901,10e-6 -0.82451,0.11476 -1.0965,0.34425 -0.2635,0.22101 -0.493,0.55676 -0.6885,1.00725 l 0,3.83775 -1.38975,0 0,-8.619 1.38975,-0.39525 0,3.37875 c 0.2465,-0.29749 0.51849,-0.50149 0.816,-0.612 0.29749,-0.11899 0.63324,-0.17849 1.00725,-0.1785"
                 id="path3129"
                 style="font-size:12.75px;font-variant:normal;font-weight:normal;writing-mode:lr-tb;fill:#656263;fill-opacity:1;fill-rule:nonzero;stroke:none;font-family:Casper Bold;-inkscape-font-specification:Casper" /><path
                 d="m 391.39604,-365.02749 c 0,0.24651 0.0297,0.47601 0.0892,0.6885 0.068,0.20401 0.17425,0.38251 0.31875,0.5355 0.153,0.14451 0.35275,0.25926 0.59925,0.34425 0.2465,0.085 0.5525,0.12751 0.918,0.1275 0.323,1e-5 0.57375,-0.0467 0.75225,-0.14025 0.1785,-0.0935 0.36975,-0.23799 0.57375,-0.4335 l 1.1475,0.47175 c -0.272,0.459 -0.63325,0.799 -1.08375,1.02 -0.4505,0.2125 -0.935,0.31875 -1.4535,0.31875 -1.0625,0 -1.87,-0.27625 -2.4225,-0.82875 -0.5525,-0.55249 -0.82875,-1.36849 -0.82875,-2.448 l 0,-0.14025 c 0,-0.11049 0,-0.21674 0,-0.31875 0,-0.10199 0.004,-0.19974 0.0128,-0.29325 0.017,-0.40799 0.1105,-0.77774 0.2805,-1.10925 0.17,-0.33149 0.39525,-0.61624 0.67575,-0.85425 0.2805,-0.23799 0.6035,-0.42074 0.969,-0.54825 0.3655,-0.12749 0.75225,-0.19124 1.16025,-0.19125 0.4675,1e-5 0.884,0.0765 1.2495,0.2295 0.3655,0.14451 0.67575,0.35276 0.93075,0.62475 0.255,0.26351 0.44625,0.58651 0.57375,0.969 0.136,0.37401 0.204,0.79051 0.204,1.2495 l 0,0.72675 -4.6665,0 m 0,-1.18575 3.27675,0 c 0,-0.20399 -0.0383,-0.39099 -0.11475,-0.561 -0.0765,-0.16999 -0.187,-0.31449 -0.3315,-0.4335 -0.136,-0.11899 -0.30175,-0.21249 -0.49725,-0.2805 -0.187,-0.068 -0.39525,-0.10199 -0.62475,-0.102 -0.2125,10e-6 -0.42075,0.0255 -0.62475,0.0765 -0.204,0.051 -0.38675,0.13601 -0.54825,0.255 -0.1615,0.11051 -0.29325,0.25501 -0.39525,0.4335 -0.0935,0.17001 -0.14025,0.37401 -0.14025,0.612"
                 id="path3131"
                 style="font-size:12.75px;font-variant:normal;font-weight:normal;writing-mode:lr-tb;fill:#656263;fill-opacity:1;fill-rule:nonzero;stroke:none;font-family:Casper Bold;-inkscape-font-specification:Casper" /><path
                 d="m 398.53604,-368.02374 c 0.16149,-0.25499 0.34849,-0.45049 0.561,-0.5865 0.21249,-0.14449 0.47599,-0.21674 0.7905,-0.21675 0.33149,1e-5 0.68424,0.0935 1.05825,0.2805 l -0.4845,1.28775 c -0.21251,-0.12749 -0.42076,-0.19124 -0.62475,-0.19125 -0.27201,1e-5 -0.49301,0.0765 -0.663,0.2295 -0.17001,0.14451 -0.30176,0.33151 -0.39525,0.561 -0.0935,0.22101 -0.15726,0.45901 -0.19125,0.714 -0.034,0.25501 -0.051,0.48451 -0.051,0.6885 l 0,3.009 -1.38975,0 0,-4.845 c 0,-0.22949 -0.017,-0.43349 -0.051,-0.612 -0.034,-0.18699 -0.0977,-0.36974 -0.19125,-0.54825 l 1.2495,-0.57375 c 0.068,0.12751 0.12749,0.25926 0.1785,0.39525 0.0595,0.12751 0.10199,0.26351 0.1275,0.408 l 0.0765,0"
                 id="path3133"
                 style="font-size:12.75px;font-variant:normal;font-weight:normal;writing-mode:lr-tb;fill:#656263;fill-opacity:1;fill-rule:nonzero;stroke:none;font-family:Casper Bold;-inkscape-font-specification:Casper" /><path
                 d="m 404.51579,-368.82699 c 0.3825,1e-5 0.76074,0.068 1.13475,0.204 0.37399,0.13601 0.69699,0.34001 0.969,0.612 l -0.867,0.85425 c -0.22951,-0.17849 -0.43776,-0.29324 -0.62475,-0.34425 -0.1785,-0.0595 -0.3995,-0.0892 -0.663,-0.0892 -0.646,1e-5 -1.11775,0.16576 -1.41525,0.49725 -0.289,0.32301 -0.4335,0.79476 -0.4335,1.41525 l 0,0.204 c 0,0.33151 0.0297,0.62901 0.0892,0.8925 0.0595,0.26351 0.15725,0.48876 0.29325,0.67575 0.1445,0.17851 0.33575,0.31876 0.57375,0.42075 0.238,0.10201 0.5355,0.15301 0.8925,0.153 0.2635,10e-6 0.5015,-0.0255 0.714,-0.0765 0.21249,-0.051 0.42499,-0.16149 0.6375,-0.3315 l 0.816,0.7905 c -0.28051,0.2975 -0.61201,0.51425 -0.9945,0.65025 -0.37401,0.136 -0.765,0.204 -1.173,0.204 -0.5525,0 -1.0285,-0.0808 -1.428,-0.24225 -0.3995,-0.1615 -0.72675,-0.391 -0.98175,-0.6885 -0.255,-0.29749 -0.44625,-0.65024 -0.57375,-1.05825 -0.119,-0.40799 -0.1785,-0.86274 -0.1785,-1.36425 l 0,-0.24225 c 0,-0.97749 0.2805,-1.74249 0.8415,-2.295 0.5695,-0.56099 1.36,-0.84149 2.3715,-0.8415"
                 id="path3135"
                 style="font-size:12.75px;font-variant:normal;font-weight:normal;writing-mode:lr-tb;fill:#656263;fill-opacity:1;fill-rule:nonzero;stroke:none;font-family:Casper Bold;-inkscape-font-specification:Casper" /><path
                 d="m 410.95456,-368.67399 c 0.3485,1e-5 0.6715,0.0553 0.969,0.16575 0.306,0.10201 0.5695,0.25076 0.7905,0.44625 0.2295,0.19551 0.408,0.43351 0.5355,0.714 0.1275,0.28051 0.19125,0.59076 0.19125,0.93075 l 0,4.16925 -1.38975,0 0,-4.01625 c 0,-0.40799 -0.10625,-0.70549 -0.31875,-0.8925 -0.204,-0.18699 -0.476,-0.28049 -0.816,-0.2805 -0.459,10e-6 -0.8245,0.11476 -1.0965,0.34425 -0.2635,0.22101 -0.493,0.55676 -0.6885,1.00725 l 0,3.83775 -1.38975,0 0,-8.619 1.38975,-0.39525 0,3.37875 c 0.2465,-0.29749 0.5185,-0.50149 0.816,-0.612 0.2975,-0.11899 0.63325,-0.17849 1.00725,-0.1785"
                 id="path3137"
                 style="font-size:12.75px;font-variant:normal;font-weight:normal;writing-mode:lr-tb;fill:#656263;fill-opacity:1;fill-rule:nonzero;stroke:none;font-family:Casper Bold;-inkscape-font-specification:Casper" /><path
                 d="m 415.5573,-365.02749 c 0,0.24651 0.0297,0.47601 0.0892,0.6885 0.068,0.20401 0.17425,0.38251 0.31875,0.5355 0.153,0.14451 0.35275,0.25926 0.59925,0.34425 0.2465,0.085 0.55249,0.12751 0.918,0.1275 0.32299,1e-5 0.57374,-0.0467 0.75225,-0.14025 0.17849,-0.0935 0.36974,-0.23799 0.57375,-0.4335 l 1.1475,0.47175 c -0.27201,0.459 -0.63326,0.799 -1.08375,1.02 -0.45051,0.2125 -0.93501,0.31875 -1.4535,0.31875 -1.0625,0 -1.87,-0.27625 -2.4225,-0.82875 -0.5525,-0.55249 -0.82875,-1.36849 -0.82875,-2.448 l 0,-0.14025 c 0,-0.11049 0,-0.21674 0,-0.31875 0,-0.10199 0.004,-0.19974 0.0127,-0.29325 0.017,-0.40799 0.1105,-0.77774 0.2805,-1.10925 0.17,-0.33149 0.39525,-0.61624 0.67575,-0.85425 0.2805,-0.23799 0.6035,-0.42074 0.969,-0.54825 0.3655,-0.12749 0.75225,-0.19124 1.16025,-0.19125 0.46749,1e-5 0.88399,0.0765 1.2495,0.2295 0.36549,0.14451 0.67574,0.35276 0.93075,0.62475 0.25499,0.26351 0.44624,0.58651 0.57375,0.969 0.13599,0.37401 0.20399,0.79051 0.204,1.2495 l 0,0.72675 -4.6665,0 m 0,-1.18575 3.27675,0 c -1e-5,-0.20399 -0.0383,-0.39099 -0.11475,-0.561 -0.0765,-0.16999 -0.18701,-0.31449 -0.3315,-0.4335 -0.13601,-0.11899 -0.30176,-0.21249 -0.49725,-0.2805 -0.18701,-0.068 -0.39526,-0.10199 -0.62475,-0.102 -0.21251,10e-6 -0.42075,0.0255 -0.62475,0.0765 -0.204,0.051 -0.38675,0.13601 -0.54825,0.255 -0.1615,0.11051 -0.29325,0.25501 -0.39525,0.4335 -0.0935,0.17001 -0.14025,0.37401 -0.14025,0.612"
                 id="path3139"
                 style="font-size:12.75px;font-variant:normal;font-weight:normal;writing-mode:lr-tb;fill:#656263;fill-opacity:1;fill-rule:nonzero;stroke:none;font-family:Casper Bold;-inkscape-font-specification:Casper" /><path
                 d="m 426.35655,-365.02749 c 0,0.24651 0.0297,0.47601 0.0892,0.6885 0.068,0.20401 0.17425,0.38251 0.31875,0.5355 0.153,0.14451 0.35275,0.25926 0.59925,0.34425 0.2465,0.085 0.5525,0.12751 0.918,0.1275 0.323,1e-5 0.57375,-0.0467 0.75225,-0.14025 0.1785,-0.0935 0.36975,-0.23799 0.57375,-0.4335 l 1.1475,0.47175 c -0.272,0.459 -0.63325,0.799 -1.08375,1.02 -0.4505,0.2125 -0.935,0.31875 -1.4535,0.31875 -1.0625,0 -1.87,-0.27625 -2.4225,-0.82875 -0.5525,-0.55249 -0.82875,-1.36849 -0.82875,-2.448 l 0,-0.14025 c 0,-0.11049 0,-0.21674 0,-0.31875 0,-0.10199 0.004,-0.19974 0.0128,-0.29325 0.017,-0.40799 0.1105,-0.77774 0.2805,-1.10925 0.17,-0.33149 0.39525,-0.61624 0.67575,-0.85425 0.2805,-0.23799 0.6035,-0.42074 0.969,-0.54825 0.3655,-0.12749 0.75225,-0.19124 1.16025,-0.19125 0.4675,1e-5 0.884,0.0765 1.2495,0.2295 0.3655,0.14451 0.67575,0.35276 0.93075,0.62475 0.255,0.26351 0.44625,0.58651 0.57375,0.969 0.136,0.37401 0.204,0.79051 0.204,1.2495 l 0,0.72675 -4.6665,0 m 0,-1.18575 3.27675,0 c 0,-0.20399 -0.0383,-0.39099 -0.11475,-0.561 -0.0765,-0.16999 -0.187,-0.31449 -0.3315,-0.4335 -0.136,-0.11899 -0.30175,-0.21249 -0.49725,-0.2805 -0.187,-0.068 -0.39525,-0.10199 -0.62475,-0.102 -0.2125,10e-6 -0.42075,0.0255 -0.62475,0.0765 -0.204,0.051 -0.38675,0.13601 -0.54825,0.255 -0.1615,0.11051 -0.29325,0.25501 -0.39525,0.4335 -0.0935,0.17001 -0.14025,0.37401 -0.14025,0.612"
                 id="path3141"
                 style="font-size:12.75px;font-variant:normal;font-weight:normal;writing-mode:lr-tb;fill:#656263;fill-opacity:1;fill-rule:nonzero;stroke:none;font-family:Casper Bold;-inkscape-font-specification:Casper" /><path
                 d="m 435.20505,-367.60299 c -0.13601,10e-6 -0.28051,0.017 -0.4335,0.051 -0.15301,0.0255 -0.30176,0.0638 -0.44625,0.11475 -0.14451,0.051 -0.28476,0.11901 -0.42075,0.204 -0.12751,0.0765 -0.23801,0.16576 -0.3315,0.26775 l 0,4.7175 -1.38975,0 0,-4.845 c 0,-0.22949 -0.017,-0.42924 -0.051,-0.59925 -0.034,-0.17849 -0.0977,-0.36549 -0.19125,-0.561 l 1.2495,-0.57375 c 0.068,0.11901 0.12749,0.23801 0.1785,0.357 0.051,0.11901 0.0935,0.25076 0.1275,0.39525 l 0.0765,0 c 0.11049,-0.11049 0.23799,-0.21249 0.3825,-0.306 0.15299,-0.0935 0.31024,-0.17424 0.47175,-0.24225 0.16149,-0.068 0.32299,-0.11899 0.4845,-0.153 0.16999,-0.034 0.32724,-0.051 0.47175,-0.051 0.36549,1e-5 0.69699,0.051 0.9945,0.153 0.30599,0.0935 0.56949,0.23376 0.7905,0.42075 0.22099,0.18701 0.39099,0.42501 0.51,0.714 0.12749,0.28051 0.19124,0.60351 0.19125,0.969 l 0,4.32225 -1.38975,0 0,-4.04175 c -1e-5,-0.87549 -0.42501,-1.31324 -1.275,-1.31325"
                 id="path3143"
                 style="font-size:12.75px;font-variant:normal;font-weight:normal;writing-mode:lr-tb;fill:#656263;fill-opacity:1;fill-rule:nonzero;stroke:none;font-family:Casper Bold;-inkscape-font-specification:Casper" /><path
                 d="m 444.19382,-371.10924 0,8.86125 -1.44075,0 0,-8.86125 1.44075,0"
                 id="path3145"
                 style="font-size:12.75px;font-variant:normal;font-weight:normal;writing-mode:lr-tb;fill:#656263;fill-opacity:1;fill-rule:nonzero;stroke:none;font-family:Casper Bold;-inkscape-font-specification:Casper" /><path
                 d="m 448.74554,-367.60299 c -0.136,10e-6 -0.2805,0.017 -0.4335,0.051 -0.153,0.0255 -0.30175,0.0638 -0.44625,0.11475 -0.1445,0.051 -0.28475,0.11901 -0.42075,0.204 -0.1275,0.0765 -0.238,0.16576 -0.3315,0.26775 l 0,4.7175 -1.38975,0 0,-4.845 c 0,-0.22949 -0.017,-0.42924 -0.051,-0.59925 -0.034,-0.17849 -0.0978,-0.36549 -0.19125,-0.561 l 1.2495,-0.57375 c 0.068,0.11901 0.1275,0.23801 0.1785,0.357 0.051,0.11901 0.0935,0.25076 0.1275,0.39525 l 0.0765,0 c 0.1105,-0.11049 0.238,-0.21249 0.3825,-0.306 0.153,-0.0935 0.31025,-0.17424 0.47175,-0.24225 0.1615,-0.068 0.323,-0.11899 0.4845,-0.153 0.17,-0.034 0.32725,-0.051 0.47175,-0.051 0.3655,1e-5 0.697,0.051 0.9945,0.153 0.306,0.0935 0.5695,0.23376 0.7905,0.42075 0.221,0.18701 0.391,0.42501 0.51,0.714 0.1275,0.28051 0.19125,0.60351 0.19125,0.969 l 0,4.32225 -1.38975,0 0,-4.04175 c 0,-0.87549 -0.425,-1.31324 -1.275,-1.31325"
                 id="path3147"
                 style="font-size:12.75px;font-variant:normal;font-weight:normal;writing-mode:lr-tb;fill:#656263;fill-opacity:1;fill-rule:nonzero;stroke:none;font-family:Casper Bold;-inkscape-font-specification:Casper" /><path
                 d="m 452.7363,-369.38799 c 0,-0.23799 0.0297,-0.46749 0.0892,-0.6885 0.068,-0.22949 0.17,-0.42924 0.306,-0.59925 0.136,-0.17849 0.3145,-0.31874 0.5355,-0.42075 0.221,-0.11049 0.4845,-0.16574 0.7905,-0.16575 0.1445,1e-5 0.306,0.017 0.4845,0.051 0.187,0.0255 0.3485,0.0595 0.4845,0.102 l 0,1.0965 -0.51,0 c -0.2635,1e-5 -0.46325,0.0723 -0.59925,0.21675 -0.1275,0.14451 -0.19125,0.34426 -0.19125,0.59925 l 0,0.52275 1.23675,0 -0.36975,1.1475 -0.867,0 0,5.2785 -1.38975,0 0,-5.2785 -0.80325,0 0,-1.1475 0.80325,0 0,-0.714"
                 id="path3149"
                 style="font-size:12.75px;font-variant:normal;font-weight:normal;writing-mode:lr-tb;fill:#656263;fill-opacity:1;fill-rule:nonzero;stroke:none;font-family:Casper Bold;-inkscape-font-specification:Casper" /><path
                 d="m 461.11307,-365.46099 0,-0.255 c -10e-6,-0.56099 -0.14876,-1.01574 -0.44625,-1.36425 -0.29751,-0.34849 -0.76925,-0.52274 -1.41525,-0.52275 -0.646,10e-6 -1.1135,0.17426 -1.4025,0.52275 -0.289,0.34851 -0.4335,0.80751 -0.4335,1.377 l 0,0.29325 c 0,0.30601 0.0255,0.58651 0.0765,0.8415 0.051,0.24651 0.1445,0.46326 0.2805,0.65025 0.136,0.18701 0.323,0.33151 0.561,0.4335 0.238,0.10201 0.544,0.15301 0.918,0.153 0.374,1e-5 0.68,-0.051 0.918,-0.153 0.23799,-0.11049 0.42499,-0.25924 0.561,-0.44625 0.14449,-0.19549 0.24224,-0.42074 0.29325,-0.67575 0.0595,-0.26349 0.0892,-0.54824 0.0892,-0.85425 m -1.87425,3.366 c -0.51,0 -0.9605,-0.085 -1.3515,-0.255 -0.391,-0.1785 -0.71825,-0.4165 -0.98175,-0.714 -0.2635,-0.30599 -0.46325,-0.66299 -0.59925,-1.071 -0.136,-0.40799 -0.204,-0.84999 -0.204,-1.326 l 0,-0.24225 c 0.008,-0.45049 0.085,-0.86699 0.2295,-1.2495 0.153,-0.38249 0.3655,-0.70974 0.6375,-0.98175 0.272,-0.28049 0.59925,-0.49724 0.98175,-0.65025 0.3825,-0.16149 0.81175,-0.24224 1.28775,-0.24225 0.4505,1e-5 0.86699,0.0808 1.2495,0.24225 0.39099,0.15301 0.73099,0.36551 1.02,0.6375 0.28899,0.27201 0.51424,0.59926 0.67575,0.98175 0.16149,0.38251 0.24224,0.79476 0.24225,1.23675 l 0,0.26775 c -10e-6,0.47601 -0.0723,0.91801 -0.21675,1.326 -0.13601,0.40801 -0.34001,0.76501 -0.612,1.071 -0.27201,0.2975 -0.60776,0.5355 -1.00725,0.714 -0.39101,0.17 -0.8415,0.255 -1.3515,0.255"
                 id="path3151"
                 style="font-size:12.75px;font-variant:normal;font-weight:normal;writing-mode:lr-tb;fill:#656263;fill-opacity:1;fill-rule:nonzero;stroke:none;font-family:Casper Bold;-inkscape-font-specification:Casper" /><path
                 d="m 464.87429,-368.02374 c 0.1615,-0.25499 0.3485,-0.45049 0.561,-0.5865 0.2125,-0.14449 0.476,-0.21674 0.7905,-0.21675 0.3315,1e-5 0.68425,0.0935 1.05825,0.2805 l -0.4845,1.28775 c -0.2125,-0.12749 -0.42075,-0.19124 -0.62475,-0.19125 -0.272,1e-5 -0.493,0.0765 -0.663,0.2295 -0.17,0.14451 -0.30175,0.33151 -0.39525,0.561 -0.0935,0.22101 -0.15725,0.45901 -0.19125,0.714 -0.034,0.25501 -0.051,0.48451 -0.051,0.6885 l 0,3.009 -1.38975,0 0,-4.845 c 0,-0.22949 -0.017,-0.43349 -0.051,-0.612 -0.034,-0.18699 -0.0978,-0.36974 -0.19125,-0.54825 l 1.2495,-0.57375 c 0.068,0.12751 0.1275,0.25926 0.1785,0.39525 0.0595,0.12751 0.102,0.26351 0.1275,0.408 l 0.0765,0"
                 id="path3153"
                 style="font-size:12.75px;font-variant:normal;font-weight:normal;writing-mode:lr-tb;fill:#656263;fill-opacity:1;fill-rule:nonzero;stroke:none;font-family:Casper Bold;-inkscape-font-specification:Casper" /><path
                 d="m 469.4898,-368.07474 c 0.085,-0.10199 0.187,-0.19549 0.306,-0.2805 0.119,-0.0935 0.2465,-0.17424 0.3825,-0.24225 0.1445,-0.068 0.289,-0.12324 0.4335,-0.16575 0.1445,-0.0425 0.2805,-0.0637 0.408,-0.0638 0.3995,1e-5 0.75225,0.0638 1.05825,0.19125 0.31449,0.12751 0.58649,0.35701 0.816,0.6885 0.29749,-0.27199 0.59499,-0.48449 0.8925,-0.6375 0.29749,-0.16149 0.65449,-0.24224 1.071,-0.24225 0.35699,1e-5 0.67999,0.0553 0.969,0.16575 0.29749,0.10201 0.55249,0.25076 0.765,0.44625 0.22099,0.19551 0.39099,0.43351 0.51,0.714 0.11899,0.28051 0.17849,0.59926 0.1785,0.95625 l 0,4.29675 -1.38975,0 0,-4.16925 c -1e-5,-0.37399 -0.0808,-0.66299 -0.24225,-0.867 -0.15301,-0.21249 -0.44201,-0.31874 -0.867,-0.31875 -0.27201,1e-5 -0.51001,0.0595 -0.714,0.1785 -0.20401,0.11901 -0.40376,0.27201 -0.59925,0.459 l 0,4.7175 -1.38975,0 0,-4.3095 c 0,-0.36549 -0.0978,-0.62899 -0.29325,-0.7905 -0.187,-0.16999 -0.4505,-0.25499 -0.7905,-0.255 -0.2805,1e-5 -0.5525,0.0553 -0.816,0.16575 -0.2635,0.11051 -0.493,0.26776 -0.6885,0.47175 l 0,4.7175 -1.38975,0 0,-4.845 c 0,-0.22949 -0.017,-0.42924 -0.051,-0.59925 -0.0255,-0.17849 -0.085,-0.36549 -0.1785,-0.561 l 1.23675,-0.57375 c 0.068,0.11901 0.1275,0.23801 0.1785,0.357 0.051,0.11901 0.0935,0.25076 0.1275,0.39525 l 0.0765,0"
                 id="path3155"
                 style="font-size:12.75px;font-variant:normal;font-weight:normal;writing-mode:lr-tb;fill:#656263;fill-opacity:1;fill-rule:nonzero;stroke:none;font-family:Casper Bold;-inkscape-font-specification:Casper" /><path
                 d="m 480.49305,-363.33174 c 0.153,1e-5 0.32299,-0.0297 0.51,-0.0892 0.18699,-0.068 0.37399,-0.14874 0.561,-0.24225 0.18699,-0.0935 0.36549,-0.19124 0.5355,-0.29325 0.17849,-0.11049 0.33574,-0.20399 0.47175,-0.2805 l 0,-0.663 -2.23125,0 c -0.272,1e-5 -0.48025,0.0723 -0.62475,0.21675 -0.136,0.14451 -0.204,0.35276 -0.204,0.62475 0,0.29751 0.0935,0.49301 0.2805,0.5865 0.187,0.0935 0.42075,0.14026 0.70125,0.14025 m 0.75225,-5.49525 c 0.35699,10e-6 0.69699,0.051 1.02,0.153 0.33149,0.10201 0.62049,0.25501 0.867,0.459 0.25499,0.19551 0.45474,0.43776 0.59925,0.72675 0.15299,0.28901 0.22949,0.62051 0.2295,0.9945 l 0,2.7795 c -10e-6,0.28901 0.0255,0.54401 0.0765,0.765 0.0595,0.2125 0.15724,0.44625 0.29325,0.70125 l -1.46625,0 c -0.068,-0.0935 -0.11901,-0.2125 -0.153,-0.357 -0.034,-0.1445 -0.0595,-0.27625 -0.0765,-0.39525 -0.34851,0.255 -0.70976,0.47175 -1.08375,0.65025 -0.36551,0.17 -0.76501,0.255 -1.1985,0.255 -0.289,0 -0.5695,-0.0468 -0.8415,-0.14025 -0.2635,-0.0935 -0.49725,-0.22525 -0.70125,-0.39525 -0.204,-0.1785 -0.36975,-0.38675 -0.49725,-0.62475 -0.119,-0.24649 -0.1785,-0.51849 -0.1785,-0.816 0,-0.31449 0.0553,-0.59924 0.16575,-0.85425 0.1105,-0.25499 0.2635,-0.47174 0.459,-0.65025 0.204,-0.17849 0.43775,-0.31449 0.70125,-0.408 0.272,-0.0935 0.561,-0.14024 0.867,-0.14025 l 2.244,0 0,-0.153 c -1e-5,-0.46749 -0.11476,-0.80324 -0.34425,-1.00725 -0.22101,-0.20399 -0.54826,-0.31024 -0.98175,-0.31875 -0.39101,10e-6 -0.73525,0.0425 -1.03275,0.1275 -0.289,0.0765 -0.595,0.19976 -0.918,0.36975 l -0.59925,-1.03275 c 0.4165,-0.23799 0.8245,-0.41224 1.224,-0.52275 0.3995,-0.11049 0.84149,-0.16574 1.326,-0.16575"
                 id="path3157"
                 style="font-size:12.75px;font-variant:normal;font-weight:normal;writing-mode:lr-tb;fill:#656263;fill-opacity:1;fill-rule:nonzero;stroke:none;font-family:Casper Bold;-inkscape-font-specification:Casper" /><path
                 d="m 485.38905,-367.52649 -0.72675,0 0,-1.1475 0.72675,0 0,-1.377 1.38975,-0.306 0,1.683 1.02,0 -0.357,1.1475 -0.663,0 0,3.42975 c 0,0.51001 0.2635,0.76501 0.7905,0.765 l 0.31875,0 0,1.0965 c -0.119,0.0425 -0.238,0.0765 -0.357,0.102 -0.1105,0.0255 -0.2295,0.0383 -0.357,0.0383 -0.238,0 -0.4675,-0.034 -0.6885,-0.102 -0.2125,-0.0595 -0.3995,-0.15725 -0.561,-0.29325 -0.1615,-0.136 -0.29325,-0.31025 -0.39525,-0.52275 -0.0935,-0.22099 -0.14025,-0.48449 -0.14025,-0.7905 l 0,-3.723"
                 id="path3159"
                 style="font-size:12.75px;font-variant:normal;font-weight:normal;writing-mode:lr-tb;fill:#656263;fill-opacity:1;fill-rule:nonzero;stroke:none;font-family:Casper Bold;-inkscape-font-specification:Casper" /><path
                 d="m 489.03555,-362.24799 0,-6.426 1.38975,0 0,6.426 -1.38975,0 m 0.663,-9.01425 c 0.2125,1e-5 0.391,0.068 0.5355,0.204 0.153,0.15301 0.2295,0.33151 0.2295,0.5355 0,0.22101 -0.0765,0.39951 -0.2295,0.5355 -0.1445,0.13601 -0.323,0.20401 -0.5355,0.204 -0.221,10e-6 -0.3995,-0.068 -0.5355,-0.204 -0.153,-0.13599 -0.2295,-0.31449 -0.2295,-0.5355 0,-0.20399 0.0765,-0.38249 0.2295,-0.5355 0.136,-0.13599 0.3145,-0.20399 0.5355,-0.204"
                 id="path3161"
                 style="font-size:12.75px;font-variant:normal;font-weight:normal;writing-mode:lr-tb;fill:#656263;fill-opacity:1;fill-rule:nonzero;stroke:none;font-family:Casper Bold;-inkscape-font-specification:Casper" /><path
                 d="m 494.26307,-363.33174 c 0.17849,1e-5 0.34849,-0.0297 0.51,-0.0892 0.16149,-0.0595 0.31024,-0.13599 0.44625,-0.2295 0.14449,-0.10199 0.28049,-0.21249 0.408,-0.3315 0.12749,-0.11899 0.25074,-0.24224 0.36975,-0.36975 l 0,-3.0345 c -0.36551,-0.14449 -0.76076,-0.21674 -1.18575,-0.21675 -0.72251,10e-6 -1.241,0.17001 -1.5555,0.51 -0.306,0.33151 -0.459,0.85851 -0.459,1.581 l 0,0.2805 c 0,0.24651 0.0212,0.48451 0.0637,0.714 0.0425,0.22951 0.119,0.43351 0.2295,0.612 0.1105,0.17001 0.25925,0.31026 0.44625,0.42075 0.1955,0.10201 0.43774,0.15301 0.72675,0.153 m 0.0255,1.23675 c -0.459,0 -0.867,-0.0722 -1.224,-0.21675 -0.357,-0.1445 -0.65875,-0.3485 -0.90525,-0.612 -0.2465,-0.26349 -0.4335,-0.57374 -0.561,-0.93075 -0.1275,-0.35699 -0.19125,-0.74799 -0.19125,-1.173 l 0,-0.663 c 0,-0.53549 0.0808,-0.99874 0.24225,-1.38975 0.17,-0.39949 0.408,-0.72674 0.714,-0.98175 0.306,-0.26349 0.6715,-0.45474 1.0965,-0.57375 0.4335,-0.12749 0.91374,-0.19124 1.44075,-0.19125 0.40799,10e-6 0.82874,0.0383 1.26225,0.11475 0.43349,0.068 0.84149,0.18276 1.224,0.34425 l 0,8.5935 -1.38975,0 0,-3.17475 c -0.23801,0.2295 -0.50151,0.42925 -0.7905,0.59925 -0.28051,0.17 -0.58651,0.255 -0.918,0.255"
                 id="path3163"
                 style="font-size:12.75px;font-variant:normal;font-weight:normal;writing-mode:lr-tb;fill:#656263;fill-opacity:1;fill-rule:nonzero;stroke:none;font-family:Casper Bold;-inkscape-font-specification:Casper" /><path
                 d="m 500.94404,-362.09499 c -0.799,0 -1.40675,-0.19125 -1.82325,-0.57375 -0.4165,-0.3825 -0.62475,-0.97324 -0.62475,-1.77225 l 0,-3.99075 1.38975,-0.39525 0,4.09275 c 0,0.22101 0.009,0.41651 0.0255,0.5865 0.0255,0.17001 0.0765,0.31876 0.153,0.44625 0.0765,0.11901 0.18275,0.21251 0.31875,0.2805 0.1445,0.0595 0.3315,0.0893 0.561,0.0892 0.1785,1e-5 0.34425,-0.0297 0.49725,-0.0892 0.153,-0.0595 0.2975,-0.13599 0.4335,-0.2295 0.1445,-0.10199 0.27625,-0.21249 0.39525,-0.3315 0.1275,-0.11899 0.2465,-0.24224 0.357,-0.36975 l 0,-4.08 1.38975,-0.39525 0,5.11275 c 0,0.32301 0.0297,0.58651 0.0892,0.7905 0.0255,0.102 0.0595,0.2125 0.102,0.3315 0.051,0.1105 0.1105,0.22525 0.1785,0.34425 l -1.46625,0 c -0.068,-0.102 -0.12325,-0.221 -0.16575,-0.357 -0.0425,-0.1445 -0.0638,-0.27625 -0.0638,-0.39525 -0.2465,0.255 -0.51,0.47175 -0.7905,0.65025 -0.272,0.17 -0.59075,0.255 -0.95625,0.255"
                 id="path3165"
                 style="font-size:12.75px;font-variant:normal;font-weight:normal;writing-mode:lr-tb;fill:#656263;fill-opacity:1;fill-rule:nonzero;stroke:none;font-family:Casper Bold;-inkscape-font-specification:Casper" /><path
                 d="m 506.6433,-365.02749 c -1e-5,0.24651 0.0297,0.47601 0.0892,0.6885 0.068,0.20401 0.17424,0.38251 0.31875,0.5355 0.15299,0.14451 0.35274,0.25926 0.59925,0.34425 0.24649,0.085 0.55249,0.12751 0.918,0.1275 0.32299,1e-5 0.57374,-0.0467 0.75225,-0.14025 0.17849,-0.0935 0.36974,-0.23799 0.57375,-0.4335 l 1.1475,0.47175 c -0.27201,0.459 -0.63326,0.799 -1.08375,1.02 -0.45051,0.2125 -0.93501,0.31875 -1.4535,0.31875 -1.06251,0 -1.87001,-0.27625 -2.4225,-0.82875 -0.5525,-0.55249 -0.82875,-1.36849 -0.82875,-2.448 l 0,-0.14025 c 0,-0.11049 0,-0.21674 0,-0.31875 0,-0.10199 0.004,-0.19974 0.0127,-0.29325 0.017,-0.40799 0.1105,-0.77774 0.2805,-1.10925 0.17,-0.33149 0.39525,-0.61624 0.67575,-0.85425 0.2805,-0.23799 0.60349,-0.42074 0.969,-0.54825 0.36549,-0.12749 0.75224,-0.19124 1.16025,-0.19125 0.46749,1e-5 0.88399,0.0765 1.2495,0.2295 0.36549,0.14451 0.67574,0.35276 0.93075,0.62475 0.25499,0.26351 0.44624,0.58651 0.57375,0.969 0.13599,0.37401 0.20399,0.79051 0.204,1.2495 l 0,0.72675 -4.6665,0 m 0,-1.18575 3.27675,0 c -10e-6,-0.20399 -0.0383,-0.39099 -0.11475,-0.561 -0.0765,-0.16999 -0.18701,-0.31449 -0.3315,-0.4335 -0.13601,-0.11899 -0.30176,-0.21249 -0.49725,-0.2805 -0.18701,-0.068 -0.39526,-0.10199 -0.62475,-0.102 -0.21251,10e-6 -0.42076,0.0255 -0.62475,0.0765 -0.20401,0.051 -0.38676,0.13601 -0.54825,0.255 -0.16151,0.11051 -0.29326,0.25501 -0.39525,0.4335 -0.0935,0.17001 -0.14026,0.37401 -0.14025,0.612"
                 id="path3167"
                 style="font-size:12.75px;font-variant:normal;font-weight:normal;writing-mode:lr-tb;fill:#656263;fill-opacity:1;fill-rule:nonzero;stroke:none;font-family:Casper Bold;-inkscape-font-specification:Casper" /><path
                 d="m 512.89079,-363.57399 c 0.1785,10e-6 0.32725,0.0383 0.44625,0.11475 0.1275,0.068 0.22525,0.16151 0.29325,0.2805 0.0765,0.1105 0.13175,0.2465 0.16575,0.408 0.034,0.153 0.051,0.31025 0.051,0.47175 0,0.4335 -0.12325,0.816 -0.36975,1.1475 -0.2465,0.34 -0.57375,0.5865 -0.98175,0.7395 l -0.357,-0.561 c 0.1955,-0.0595 0.374,-0.17425 0.5355,-0.34425 0.1615,-0.17 0.24225,-0.357 0.24225,-0.561 0,-0.068 -0.0127,-0.14025 -0.0382,-0.21675 -0.204,0 -0.3825,-0.068 -0.5355,-0.204 -0.153,-0.136 -0.2295,-0.31025 -0.2295,-0.52275 0,-0.2125 0.0765,-0.39099 0.2295,-0.5355 0.1615,-0.14449 0.34425,-0.21674 0.54825,-0.21675"
                 id="path3169"
                 style="font-size:12.75px;font-variant:normal;font-weight:normal;writing-mode:lr-tb;fill:#656263;fill-opacity:1;fill-rule:nonzero;stroke:none;font-family:Casper Bold;-inkscape-font-specification:Casper" /><path
                 d="m 347.44681,-353.46326 c 0,-0.44199 0.102,-0.81174 0.306,-1.10925 0.204,-0.30599 0.4675,-0.55249 0.7905,-0.7395 0.323,-0.19549 0.68,-0.33574 1.071,-0.42075 0.3995,-0.085 0.7905,-0.12749 1.173,-0.1275 0.272,10e-6 0.544,0.0298 0.816,0.0892 0.2805,0.051 0.5525,0.13176 0.816,0.24225 0.2635,0.10201 0.51,0.23376 0.7395,0.39525 0.2295,0.15301 0.4335,0.33151 0.612,0.5355 l -0.98175,0.87975 c -0.2975,-0.29749 -0.62475,-0.50149 -0.98175,-0.612 -0.3485,-0.11899 -0.73525,-0.17849 -1.16025,-0.1785 -0.1955,10e-6 -0.39525,0.017 -0.59925,0.051 -0.1955,0.034 -0.37825,0.0893 -0.54825,0.16575 -0.17,0.0765 -0.31025,0.17851 -0.42075,0.306 -0.102,0.12751 -0.153,0.28476 -0.153,0.47175 0,0.21251 0.0255,0.38676 0.0765,0.52275 0.0595,0.13601 0.14025,0.25076 0.24225,0.34425 0.1105,0.085 0.238,0.15726 0.3825,0.21675 0.1445,0.0595 0.306,0.11901 0.4845,0.1785 0.408,0.13601 0.82025,0.25076 1.23675,0.34425 0.4165,0.085 0.8245,0.22526 1.224,0.42075 0.442,0.21251 0.79475,0.49301 1.05825,0.8415 0.272,0.34851 0.40799,0.80325 0.408,1.36425 -1e-5,0.4845 -0.102,0.8925 -0.306,1.224 -0.204,0.3315 -0.4675,0.59925 -0.7905,0.80325 -0.323,0.204 -0.6885,0.3485 -1.0965,0.4335 -0.3995,0.085 -0.80325,0.1275 -1.21125,0.1275 -0.357,0 -0.70975,-0.0425 -1.05825,-0.1275 -0.3485,-0.0765 -0.68,-0.1955 -0.9945,-0.357 -0.306,-0.1615 -0.5865,-0.36125 -0.8415,-0.59925 -0.255,-0.238 -0.4675,-0.5185 -0.6375,-0.8415 l 1.18575,-0.62475 c 0.2465,0.3825 0.56525,0.68 0.95625,0.8925 0.3995,0.2125 0.867,0.31875 1.4025,0.31875 0.238,0 0.47175,-0.0212 0.70125,-0.0637 0.238,-0.0425 0.44625,-0.1105 0.62475,-0.204 0.187,-0.0935 0.33575,-0.21675 0.44625,-0.36975 0.119,-0.1615 0.1785,-0.35275 0.1785,-0.57375 0,-0.1955 -0.0297,-0.357 -0.0892,-0.4845 -0.0595,-0.136 -0.1445,-0.2465 -0.255,-0.3315 -0.1105,-0.085 -0.238,-0.15724 -0.3825,-0.21675 -0.1445,-0.0595 -0.2975,-0.11474 -0.459,-0.16575 -0.4165,-0.14449 -0.83725,-0.26349 -1.26225,-0.357 -0.4165,-0.0935 -0.8245,-0.23799 -1.224,-0.4335 -0.221,-0.11049 -0.425,-0.22524 -0.612,-0.34425 -0.1785,-0.12749 -0.3315,-0.27624 -0.459,-0.44625 -0.1275,-0.17849 -0.2295,-0.38249 -0.306,-0.612 -0.068,-0.22949 -0.102,-0.50574 -0.102,-0.82875"
                 id="path3171"
                 style="font-size:12.75px;font-variant:normal;font-weight:normal;writing-mode:lr-tb;fill:#656263;fill-opacity:1;fill-rule:nonzero;stroke:none;font-family:Casper Bold;-inkscape-font-specification:Casper" /><path
                 d="m 355.16055,-346.84601 0,-6.426 1.38975,0 0,6.426 -1.38975,0 m 0.663,-9.01425 c 0.2125,10e-6 0.391,0.068 0.5355,0.204 0.153,0.15301 0.2295,0.33151 0.2295,0.5355 0,0.22101 -0.0765,0.39951 -0.2295,0.5355 -0.1445,0.13601 -0.323,0.20401 -0.5355,0.204 -0.221,10e-6 -0.3995,-0.068 -0.5355,-0.204 -0.153,-0.13599 -0.2295,-0.31449 -0.2295,-0.5355 0,-0.20399 0.0765,-0.38249 0.2295,-0.5355 0.136,-0.13599 0.3145,-0.20399 0.5355,-0.204"
                 id="path3173"
                 style="font-size:12.75px;font-variant:normal;font-weight:normal;writing-mode:lr-tb;fill:#656263;fill-opacity:1;fill-rule:nonzero;stroke:none;font-family:Casper Bold;-inkscape-font-specification:Casper" /><path
                 d="m 360.18404,-348.08276 c 0.35699,0 0.66724,-0.0978 0.93075,-0.29325 0.27199,-0.1955 0.51849,-0.43775 0.7395,-0.72675 l 0,-2.89425 c -0.19551,-0.068 -0.37401,-0.11474 -0.5355,-0.14025 -0.15301,-0.034 -0.33151,-0.051 -0.5355,-0.051 -0.35701,1e-5 -0.65876,0.034 -0.90525,0.102 -0.23801,0.068 -0.4335,0.17851 -0.5865,0.3315 -0.1445,0.15301 -0.25075,0.35276 -0.31875,0.59925 -0.0595,0.23801 -0.0892,0.53551 -0.0892,0.8925 l 0,0.561 c 0,0.255 0.0128,0.4845 0.0383,0.6885 0.034,0.1955 0.0978,0.3655 0.19125,0.51 0.0935,0.136 0.22525,0.24225 0.39525,0.31875 0.16999,0.068 0.39524,0.102 0.67575,0.102 m 1.67025,0.39525 c -0.23801,0.238 -0.48876,0.43775 -0.75225,0.59925 -0.26351,0.1615 -0.56951,0.24225 -0.918,0.24225 -0.8755,0 -1.54275,-0.2465 -2.00175,-0.7395 -0.459,-0.5015 -0.6885,-1.1815 -0.6885,-2.04 l 0,-0.663 c 0,-1.07099 0.27625,-1.86149 0.82875,-2.3715 0.561,-0.50999 1.37274,-0.76499 2.43525,-0.765 0.40799,10e-6 0.82874,0.0383 1.26225,0.11475 0.44199,0.068 0.84999,0.18276 1.224,0.34425 l 0,5.8905 c -1e-5,0.4165 -0.0765,0.799 -0.2295,1.1475 -0.15301,0.3485 -0.36551,0.65025 -0.6375,0.90525 -0.27201,0.255 -0.59076,0.4505 -0.95625,0.5865 -0.36551,0.1445 -0.75651,0.21675 -1.173,0.21675 -0.46751,0 -0.9095,-0.0553 -1.326,-0.16575 -0.4165,-0.1105 -0.82875,-0.28475 -1.23675,-0.52275 l 0.65025,-1.13475 c 0.323,0.1955 0.63325,0.32725 0.93075,0.39525 0.29749,0.068 0.63324,0.102 1.00725,0.102 0.55249,0 0.95199,-0.1445 1.1985,-0.4335 0.25499,-0.2805 0.38249,-0.6885 0.3825,-1.224 l 0,-0.4845"
                 id="path3175"
                 style="font-size:12.75px;font-variant:normal;font-weight:normal;writing-mode:lr-tb;fill:#656263;fill-opacity:1;fill-rule:nonzero;stroke:none;font-family:Casper Bold;-inkscape-font-specification:Casper" /><path
                 d="m 367.56631,-352.20101 c -0.136,10e-6 -0.2805,0.017 -0.4335,0.051 -0.153,0.0255 -0.30175,0.0638 -0.44625,0.11475 -0.1445,0.051 -0.28475,0.11901 -0.42075,0.204 -0.1275,0.0765 -0.238,0.16576 -0.3315,0.26775 l 0,4.7175 -1.38975,0 0,-4.845 c 0,-0.22949 -0.017,-0.42924 -0.051,-0.59925 -0.034,-0.17849 -0.0978,-0.36549 -0.19125,-0.561 l 1.2495,-0.57375 c 0.068,0.11901 0.1275,0.23801 0.1785,0.357 0.051,0.11901 0.0935,0.25076 0.1275,0.39525 l 0.0765,0 c 0.1105,-0.11049 0.238,-0.21249 0.3825,-0.306 0.153,-0.0935 0.31025,-0.17424 0.47175,-0.24225 0.1615,-0.068 0.323,-0.11899 0.4845,-0.153 0.17,-0.034 0.32725,-0.051 0.47175,-0.051 0.3655,10e-6 0.697,0.051 0.9945,0.153 0.306,0.0935 0.5695,0.23376 0.7905,0.42075 0.221,0.18701 0.391,0.42501 0.51,0.714 0.1275,0.28051 0.19125,0.60351 0.19125,0.969 l 0,4.32225 -1.38975,0 0,-4.04175 c 0,-0.87549 -0.425,-1.31324 -1.275,-1.31325"
                 id="path3177"
                 style="font-size:12.75px;font-variant:normal;font-weight:normal;writing-mode:lr-tb;fill:#656263;fill-opacity:1;fill-rule:nonzero;stroke:none;font-family:Casper Bold;-inkscape-font-specification:Casper" /><path
                 d="m 373.39304,-347.92976 c 0.153,0 0.323,-0.0298 0.51,-0.0892 0.187,-0.068 0.374,-0.14875 0.561,-0.24225 0.187,-0.0935 0.3655,-0.19125 0.5355,-0.29325 0.1785,-0.1105 0.33575,-0.204 0.47175,-0.2805 l 0,-0.663 -2.23125,0 c -0.272,0 -0.48025,0.0722 -0.62475,0.21675 -0.136,0.1445 -0.204,0.35275 -0.204,0.62475 0,0.2975 0.0935,0.493 0.2805,0.5865 0.187,0.0935 0.42075,0.14025 0.70125,0.14025 m 0.75225,-5.49525 c 0.357,10e-6 0.697,0.051 1.02,0.153 0.3315,0.10201 0.6205,0.25501 0.867,0.459 0.255,0.19551 0.45475,0.43776 0.59925,0.72675 0.153,0.28901 0.2295,0.62051 0.2295,0.9945 l 0,2.7795 c 0,0.289 0.0255,0.544 0.0765,0.765 0.0595,0.2125 0.15725,0.44625 0.29325,0.70125 l -1.46625,0 c -0.068,-0.0935 -0.119,-0.2125 -0.153,-0.357 -0.034,-0.1445 -0.0595,-0.27625 -0.0765,-0.39525 -0.3485,0.255 -0.70975,0.47175 -1.08375,0.65025 -0.3655,0.17 -0.765,0.255 -1.1985,0.255 -0.289,0 -0.5695,-0.0467 -0.8415,-0.14025 -0.2635,-0.0935 -0.49725,-0.22525 -0.70125,-0.39525 -0.204,-0.1785 -0.36975,-0.38675 -0.49725,-0.62475 -0.119,-0.2465 -0.1785,-0.5185 -0.1785,-0.816 0,-0.3145 0.0553,-0.59925 0.16575,-0.85425 0.1105,-0.255 0.2635,-0.47175 0.459,-0.65025 0.204,-0.17849 0.43775,-0.31449 0.70125,-0.408 0.272,-0.0935 0.561,-0.14024 0.867,-0.14025 l 2.244,0 0,-0.153 c 0,-0.46749 -0.11475,-0.80324 -0.34425,-1.00725 -0.221,-0.20399 -0.54825,-0.31024 -0.98175,-0.31875 -0.391,1e-5 -0.73525,0.0425 -1.03275,0.1275 -0.289,0.0765 -0.595,0.19976 -0.918,0.36975 l -0.59925,-1.03275 c 0.4165,-0.23799 0.8245,-0.41224 1.224,-0.52275 0.3995,-0.11049 0.8415,-0.16574 1.326,-0.16575"
                 id="path3179"
                 style="font-size:12.75px;font-variant:normal;font-weight:normal;writing-mode:lr-tb;fill:#656263;fill-opacity:1;fill-rule:nonzero;stroke:none;font-family:Casper Bold;-inkscape-font-specification:Casper" /><path
                 d="m 378.0978,-355.47776 1.38975,-0.3825 0,7.1655 c -10e-6,0.51 0.26349,0.765 0.7905,0.765 l 0.49725,0 0,1.08375 c -0.13601,0.0425 -0.30601,0.0765 -0.51,0.102 -0.20401,0.034 -0.37826,0.051 -0.52275,0.051 -0.23801,0 -0.45901,-0.0383 -0.663,-0.11475 -0.19551,-0.0765 -0.36976,-0.18275 -0.52275,-0.31875 -0.14451,-0.1445 -0.25926,-0.3145 -0.34425,-0.51 -0.0765,-0.1955 -0.11476,-0.408 -0.11475,-0.6375 l 0,-7.20375"
                 id="path3181"
                 style="font-size:12.75px;font-variant:normal;font-weight:normal;writing-mode:lr-tb;fill:#656263;fill-opacity:1;fill-rule:nonzero;stroke:none;font-family:Casper Bold;-inkscape-font-specification:Casper" /><path
                 d="m 386.46181,-349.62551 c 0,0.2465 0.0297,0.476 0.0892,0.6885 0.068,0.204 0.17425,0.3825 0.31875,0.5355 0.153,0.1445 0.35275,0.25925 0.59925,0.34425 0.2465,0.085 0.5525,0.1275 0.918,0.1275 0.32299,0 0.57374,-0.0468 0.75225,-0.14025 0.17849,-0.0935 0.36974,-0.238 0.57375,-0.4335 l 1.1475,0.47175 c -0.27201,0.459 -0.63326,0.799 -1.08375,1.02 -0.45051,0.2125 -0.93501,0.31875 -1.4535,0.31875 -1.0625,0 -1.87,-0.27625 -2.4225,-0.82875 -0.5525,-0.5525 -0.82875,-1.3685 -0.82875,-2.448 l 0,-0.14025 c 0,-0.11049 0,-0.21674 0,-0.31875 0,-0.10199 0.004,-0.19974 0.0127,-0.29325 0.017,-0.40799 0.1105,-0.77774 0.2805,-1.10925 0.17,-0.33149 0.39525,-0.61624 0.67575,-0.85425 0.2805,-0.23799 0.6035,-0.42074 0.969,-0.54825 0.3655,-0.12749 0.75225,-0.19124 1.16025,-0.19125 0.46749,10e-6 0.88399,0.0765 1.2495,0.2295 0.36549,0.14451 0.67574,0.35276 0.93075,0.62475 0.25499,0.26351 0.44624,0.58651 0.57375,0.969 0.13599,0.37401 0.20399,0.79051 0.204,1.2495 l 0,0.72675 -4.6665,0 m 0,-1.18575 3.27675,0 c -10e-6,-0.20399 -0.0383,-0.39099 -0.11475,-0.561 -0.0765,-0.16999 -0.18701,-0.31449 -0.3315,-0.4335 -0.13601,-0.11899 -0.30176,-0.21249 -0.49725,-0.2805 -0.18701,-0.068 -0.39526,-0.10199 -0.62475,-0.102 -0.2125,1e-5 -0.42075,0.0255 -0.62475,0.0765 -0.204,0.051 -0.38675,0.13601 -0.54825,0.255 -0.1615,0.11051 -0.29325,0.25501 -0.39525,0.4335 -0.0935,0.17001 -0.14025,0.37401 -0.14025,0.612"
                 id="path3183"
                 style="font-size:12.75px;font-variant:normal;font-weight:normal;writing-mode:lr-tb;fill:#656263;fill-opacity:1;fill-rule:nonzero;stroke:none;font-family:Casper Bold;-inkscape-font-specification:Casper" /><path
                 d="m 392.33955,-352.12451 -0.72675,0 0,-1.1475 0.72675,0 0,-1.377 1.38975,-0.306 0,1.683 1.02,0 -0.357,1.1475 -0.663,0 0,3.42975 c 0,0.51 0.2635,0.765 0.7905,0.765 l 0.31875,0 0,1.0965 c -0.119,0.0425 -0.238,0.0765 -0.357,0.102 -0.1105,0.0255 -0.2295,0.0383 -0.357,0.0383 -0.238,0 -0.4675,-0.034 -0.6885,-0.102 -0.2125,-0.0595 -0.3995,-0.15725 -0.561,-0.29325 -0.1615,-0.136 -0.29325,-0.31025 -0.39525,-0.52275 -0.0935,-0.221 -0.14025,-0.4845 -0.14025,-0.7905 l 0,-3.723"
                 id="path3185"
                 style="font-size:12.75px;font-variant:normal;font-weight:normal;writing-mode:lr-tb;fill:#656263;fill-opacity:1;fill-rule:nonzero;stroke:none;font-family:Casper Bold;-inkscape-font-specification:Casper" /><path
                 d="m 402.06779,-350.62001 2.66475,0 -1.16025,-2.97075 -0.204,-0.9945 -0.204,0.9945 -1.0965,2.97075 m -0.4335,1.2495 -0.93075,2.5245 -1.51725,0 3.30225,-8.86125 1.72125,0 3.468,8.86125 -1.49175,0 -0.98175,-2.5245 -3.57,0"
                 id="path3187"
                 style="font-size:12.75px;font-variant:normal;font-weight:normal;writing-mode:lr-tb;fill:#656263;fill-opacity:1;fill-rule:nonzero;stroke:none;font-family:Casper Bold;-inkscape-font-specification:Casper" /><path
                 d="m 410.81431,-346.69301 c -0.799,0 -1.40675,-0.19125 -1.82325,-0.57375 -0.4165,-0.3825 -0.62475,-0.97325 -0.62475,-1.77225 l 0,-3.99075 1.38975,-0.39525 0,4.09275 c 0,0.221 0.009,0.4165 0.0255,0.5865 0.0255,0.17 0.0765,0.31875 0.153,0.44625 0.0765,0.119 0.18275,0.2125 0.31875,0.2805 0.1445,0.0595 0.3315,0.0892 0.561,0.0892 0.1785,0 0.34425,-0.0298 0.49725,-0.0892 0.153,-0.0595 0.2975,-0.136 0.4335,-0.2295 0.1445,-0.102 0.27625,-0.2125 0.39525,-0.3315 0.1275,-0.119 0.2465,-0.24225 0.357,-0.36975 l 0,-4.08 1.38975,-0.39525 0,5.11275 c 0,0.323 0.0297,0.5865 0.0892,0.7905 0.0255,0.102 0.0595,0.2125 0.102,0.3315 0.051,0.1105 0.1105,0.22525 0.1785,0.34425 l -1.46625,0 c -0.068,-0.102 -0.12325,-0.221 -0.16575,-0.357 -0.0425,-0.1445 -0.0638,-0.27625 -0.0638,-0.39525 -0.2465,0.255 -0.51,0.47175 -0.7905,0.65025 -0.272,0.17 -0.59075,0.255 -0.95625,0.255"
                 id="path3189"
                 style="font-size:12.75px;font-variant:normal;font-weight:normal;writing-mode:lr-tb;fill:#656263;fill-opacity:1;fill-rule:nonzero;stroke:none;font-family:Casper Bold;-inkscape-font-specification:Casper" /><path
                 d="m 415.41707,-352.12451 -0.72675,0 0,-1.1475 0.72675,0 0,-1.377 1.38975,-0.306 0,1.683 1.02,0 -0.357,1.1475 -0.663,0 0,3.42975 c -1e-5,0.51 0.26349,0.765 0.7905,0.765 l 0.31875,0 0,1.0965 c -0.11901,0.0425 -0.23801,0.0765 -0.357,0.102 -0.11051,0.0255 -0.22951,0.0383 -0.357,0.0383 -0.23801,0 -0.46751,-0.034 -0.6885,-0.102 -0.21251,-0.0595 -0.3995,-0.15725 -0.561,-0.29325 -0.1615,-0.136 -0.29325,-0.31025 -0.39525,-0.52275 -0.0935,-0.221 -0.14025,-0.4845 -0.14025,-0.7905 l 0,-3.723"
                 id="path3191"
                 style="font-size:12.75px;font-variant:normal;font-weight:normal;writing-mode:lr-tb;fill:#656263;fill-opacity:1;fill-rule:nonzero;stroke:none;font-family:Casper Bold;-inkscape-font-specification:Casper" /><path
                 d="m 423.84479,-350.05901 0,-0.255 c -10e-6,-0.56099 -0.14876,-1.01574 -0.44625,-1.36425 -0.29751,-0.34849 -0.76925,-0.52274 -1.41525,-0.52275 -0.646,10e-6 -1.1135,0.17426 -1.4025,0.52275 -0.289,0.34851 -0.4335,0.80751 -0.4335,1.377 l 0,0.29325 c 0,0.306 0.0255,0.5865 0.0765,0.8415 0.051,0.2465 0.1445,0.46325 0.2805,0.65025 0.136,0.187 0.323,0.3315 0.561,0.4335 0.238,0.102 0.544,0.153 0.918,0.153 0.374,0 0.68,-0.051 0.918,-0.153 0.23799,-0.1105 0.42499,-0.25925 0.561,-0.44625 0.14449,-0.1955 0.24224,-0.42075 0.29325,-0.67575 0.0595,-0.2635 0.0892,-0.54825 0.0892,-0.85425 m -1.87425,3.366 c -0.51,0 -0.9605,-0.085 -1.3515,-0.255 -0.391,-0.1785 -0.71825,-0.4165 -0.98175,-0.714 -0.2635,-0.306 -0.46325,-0.663 -0.59925,-1.071 -0.136,-0.408 -0.204,-0.85 -0.204,-1.326 l 0,-0.24225 c 0.008,-0.45049 0.085,-0.86699 0.2295,-1.2495 0.153,-0.38249 0.3655,-0.70974 0.6375,-0.98175 0.272,-0.28049 0.59925,-0.49724 0.98175,-0.65025 0.3825,-0.16149 0.81175,-0.24224 1.28775,-0.24225 0.4505,10e-6 0.86699,0.0808 1.2495,0.24225 0.39099,0.15301 0.73099,0.36551 1.02,0.6375 0.28899,0.27201 0.51424,0.59926 0.67575,0.98175 0.16149,0.38251 0.24224,0.79476 0.24225,1.23675 l 0,0.26775 c -10e-6,0.476 -0.0723,0.918 -0.21675,1.326 -0.13601,0.408 -0.34001,0.765 -0.612,1.071 -0.27201,0.2975 -0.60776,0.5355 -1.00725,0.714 -0.39101,0.17 -0.8415,0.255 -1.3515,0.255"
                 id="path3193"
                 style="font-size:12.75px;font-variant:normal;font-weight:normal;writing-mode:lr-tb;fill:#656263;fill-opacity:1;fill-rule:nonzero;stroke:none;font-family:Casper Bold;-inkscape-font-specification:Casper" /><path
                 d="m 427.73354,-352.67276 c 0.085,-0.10199 0.187,-0.19549 0.306,-0.2805 0.119,-0.0935 0.2465,-0.17424 0.3825,-0.24225 0.1445,-0.068 0.289,-0.12324 0.4335,-0.16575 0.1445,-0.0425 0.2805,-0.0637 0.408,-0.0637 0.3995,10e-6 0.75225,0.0638 1.05825,0.19125 0.3145,0.12751 0.5865,0.35701 0.816,0.6885 0.2975,-0.27199 0.595,-0.48449 0.8925,-0.6375 0.2975,-0.16149 0.6545,-0.24224 1.071,-0.24225 0.357,10e-6 0.68,0.0553 0.969,0.16575 0.2975,0.10201 0.55249,0.25076 0.765,0.44625 0.22099,0.19551 0.39099,0.43351 0.51,0.714 0.11899,0.28051 0.17849,0.59926 0.1785,0.95625 l 0,4.29675 -1.38975,0 0,-4.16925 c 0,-0.37399 -0.0808,-0.66299 -0.24225,-0.867 -0.153,-0.21249 -0.442,-0.31874 -0.867,-0.31875 -0.272,1e-5 -0.51,0.0595 -0.714,0.1785 -0.204,0.11901 -0.40375,0.27201 -0.59925,0.459 l 0,4.7175 -1.38975,0 0,-4.3095 c 0,-0.36549 -0.0978,-0.62899 -0.29325,-0.7905 -0.187,-0.16999 -0.4505,-0.25499 -0.7905,-0.255 -0.2805,1e-5 -0.5525,0.0553 -0.816,0.16575 -0.2635,0.11051 -0.493,0.26776 -0.6885,0.47175 l 0,4.7175 -1.38975,0 0,-4.845 c 0,-0.22949 -0.017,-0.42924 -0.051,-0.59925 -0.0255,-0.17849 -0.085,-0.36549 -0.1785,-0.561 l 1.23675,-0.57375 c 0.068,0.11901 0.1275,0.23801 0.1785,0.357 0.051,0.11901 0.0935,0.25076 0.1275,0.39525 l 0.0765,0"
                 id="path3195"
                 style="font-size:12.75px;font-variant:normal;font-weight:normal;writing-mode:lr-tb;fill:#656263;fill-opacity:1;fill-rule:nonzero;stroke:none;font-family:Casper Bold;-inkscape-font-specification:Casper" /><path
                 d="m 438.73679,-347.92976 c 0.153,0 0.323,-0.0298 0.51,-0.0892 0.187,-0.068 0.374,-0.14875 0.561,-0.24225 0.187,-0.0935 0.3655,-0.19125 0.5355,-0.29325 0.1785,-0.1105 0.33575,-0.204 0.47175,-0.2805 l 0,-0.663 -2.23125,0 c -0.272,0 -0.48025,0.0722 -0.62475,0.21675 -0.136,0.1445 -0.204,0.35275 -0.204,0.62475 0,0.2975 0.0935,0.493 0.2805,0.5865 0.187,0.0935 0.42075,0.14025 0.70125,0.14025 m 0.75225,-5.49525 c 0.357,10e-6 0.697,0.051 1.02,0.153 0.3315,0.10201 0.6205,0.25501 0.867,0.459 0.255,0.19551 0.45475,0.43776 0.59925,0.72675 0.153,0.28901 0.2295,0.62051 0.2295,0.9945 l 0,2.7795 c 0,0.289 0.0255,0.544 0.0765,0.765 0.0595,0.2125 0.15725,0.44625 0.29325,0.70125 l -1.46625,0 c -0.068,-0.0935 -0.119,-0.2125 -0.153,-0.357 -0.034,-0.1445 -0.0595,-0.27625 -0.0765,-0.39525 -0.3485,0.255 -0.70975,0.47175 -1.08375,0.65025 -0.3655,0.17 -0.765,0.255 -1.1985,0.255 -0.289,0 -0.5695,-0.0467 -0.8415,-0.14025 -0.2635,-0.0935 -0.49725,-0.22525 -0.70125,-0.39525 -0.204,-0.1785 -0.36975,-0.38675 -0.49725,-0.62475 -0.119,-0.2465 -0.1785,-0.5185 -0.1785,-0.816 0,-0.3145 0.0553,-0.59925 0.16575,-0.85425 0.1105,-0.255 0.2635,-0.47175 0.459,-0.65025 0.204,-0.17849 0.43775,-0.31449 0.70125,-0.408 0.272,-0.0935 0.561,-0.14024 0.867,-0.14025 l 2.244,0 0,-0.153 c 0,-0.46749 -0.11475,-0.80324 -0.34425,-1.00725 -0.221,-0.20399 -0.54825,-0.31024 -0.98175,-0.31875 -0.391,1e-5 -0.73525,0.0425 -1.03275,0.1275 -0.289,0.0765 -0.595,0.19976 -0.918,0.36975 l -0.59925,-1.03275 c 0.4165,-0.23799 0.8245,-0.41224 1.224,-0.52275 0.3995,-0.11049 0.8415,-0.16574 1.326,-0.16575"
                 id="path3197"
                 style="font-size:12.75px;font-variant:normal;font-weight:normal;writing-mode:lr-tb;fill:#656263;fill-opacity:1;fill-rule:nonzero;stroke:none;font-family:Casper Bold;-inkscape-font-specification:Casper" /><path
                 d="m 443.6328,-352.12451 -0.72675,0 0,-1.1475 0.72675,0 0,-1.377 1.38975,-0.306 0,1.683 1.02,0 -0.357,1.1475 -0.663,0 0,3.42975 c -1e-5,0.51 0.26349,0.765 0.7905,0.765 l 0.31875,0 0,1.0965 c -0.11901,0.0425 -0.23801,0.0765 -0.357,0.102 -0.11051,0.0255 -0.22951,0.0383 -0.357,0.0383 -0.23801,0 -0.46751,-0.034 -0.6885,-0.102 -0.21251,-0.0595 -0.39951,-0.15725 -0.561,-0.29325 -0.16151,-0.136 -0.29326,-0.31025 -0.39525,-0.52275 -0.0935,-0.221 -0.14026,-0.4845 -0.14025,-0.7905 l 0,-3.723"
                 id="path3199"
                 style="font-size:12.75px;font-variant:normal;font-weight:normal;writing-mode:lr-tb;fill:#656263;fill-opacity:1;fill-rule:nonzero;stroke:none;font-family:Casper Bold;-inkscape-font-specification:Casper" /><path
                 d="m 447.2793,-346.84601 0,-6.426 1.38975,0 0,6.426 -1.38975,0 m 0.663,-9.01425 c 0.2125,10e-6 0.391,0.068 0.5355,0.204 0.153,0.15301 0.2295,0.33151 0.2295,0.5355 0,0.22101 -0.0765,0.39951 -0.2295,0.5355 -0.1445,0.13601 -0.323,0.20401 -0.5355,0.204 -0.221,10e-6 -0.3995,-0.068 -0.5355,-0.204 -0.153,-0.13599 -0.2295,-0.31449 -0.2295,-0.5355 0,-0.20399 0.0765,-0.38249 0.2295,-0.5355 0.136,-0.13599 0.3145,-0.20399 0.5355,-0.204"
                 id="path3201"
                 style="font-size:12.75px;font-variant:normal;font-weight:normal;writing-mode:lr-tb;fill:#656263;fill-opacity:1;fill-rule:nonzero;stroke:none;font-family:Casper Bold;-inkscape-font-specification:Casper" /><path
                 d="m 452.50681,-347.92976 c 0.1785,0 0.3485,-0.0298 0.51,-0.0892 0.1615,-0.0595 0.31025,-0.136 0.44625,-0.2295 0.1445,-0.102 0.2805,-0.2125 0.408,-0.3315 0.1275,-0.119 0.25075,-0.24225 0.36975,-0.36975 l 0,-3.0345 c -0.3655,-0.14449 -0.76075,-0.21674 -1.18575,-0.21675 -0.7225,1e-5 -1.241,0.17001 -1.5555,0.51 -0.306,0.33151 -0.459,0.85851 -0.459,1.581 l 0,0.2805 c 0,0.2465 0.0212,0.4845 0.0637,0.714 0.0425,0.2295 0.119,0.4335 0.2295,0.612 0.1105,0.17 0.25925,0.31025 0.44625,0.42075 0.1955,0.102 0.43775,0.153 0.72675,0.153 m 0.0255,1.23675 c -0.459,0 -0.867,-0.0722 -1.224,-0.21675 -0.357,-0.1445 -0.65875,-0.3485 -0.90525,-0.612 -0.2465,-0.2635 -0.4335,-0.57375 -0.561,-0.93075 -0.1275,-0.357 -0.19125,-0.748 -0.19125,-1.173 l 0,-0.663 c 0,-0.53549 0.0808,-0.99874 0.24225,-1.38975 0.17,-0.39949 0.408,-0.72674 0.714,-0.98175 0.306,-0.26349 0.6715,-0.45474 1.0965,-0.57375 0.4335,-0.12749 0.91375,-0.19124 1.44075,-0.19125 0.408,10e-6 0.82875,0.0383 1.26225,0.11475 0.4335,0.068 0.8415,0.18276 1.224,0.34425 l 0,8.5935 -1.38975,0 0,-3.17475 c -0.238,0.2295 -0.5015,0.42925 -0.7905,0.59925 -0.2805,0.17 -0.5865,0.255 -0.918,0.255"
                 id="path3203"
                 style="font-size:12.75px;font-variant:normal;font-weight:normal;writing-mode:lr-tb;fill:#656263;fill-opacity:1;fill-rule:nonzero;stroke:none;font-family:Casper Bold;-inkscape-font-specification:Casper" /><path
                 d="m 459.18782,-346.69301 c -0.79901,0 -1.40676,-0.19125 -1.82325,-0.57375 -0.4165,-0.3825 -0.62475,-0.97325 -0.62475,-1.77225 l 0,-3.99075 1.38975,-0.39525 0,4.09275 c -10e-6,0.221 0.008,0.4165 0.0255,0.5865 0.0255,0.17 0.0765,0.31875 0.153,0.44625 0.0765,0.119 0.18274,0.2125 0.31875,0.2805 0.14449,0.0595 0.33149,0.0892 0.561,0.0892 0.17849,0 0.34424,-0.0298 0.49725,-0.0892 0.15299,-0.0595 0.29749,-0.136 0.4335,-0.2295 0.14449,-0.102 0.27624,-0.2125 0.39525,-0.3315 0.12749,-0.119 0.24649,-0.24225 0.357,-0.36975 l 0,-4.08 1.38975,-0.39525 0,5.11275 c -10e-6,0.323 0.0297,0.5865 0.0893,0.7905 0.0255,0.102 0.0595,0.2125 0.102,0.3315 0.051,0.1105 0.11049,0.22525 0.1785,0.34425 l -1.46625,0 c -0.068,-0.102 -0.12326,-0.221 -0.16575,-0.357 -0.0425,-0.1445 -0.0638,-0.27625 -0.0637,-0.39525 -0.24651,0.255 -0.51001,0.47175 -0.7905,0.65025 -0.27201,0.17 -0.59076,0.255 -0.95625,0.255"
                 id="path3205"
                 style="font-size:12.75px;font-variant:normal;font-weight:normal;writing-mode:lr-tb;fill:#656263;fill-opacity:1;fill-rule:nonzero;stroke:none;font-family:Casper Bold;-inkscape-font-specification:Casper" /><path
                 d="m 464.88704,-349.62551 c 0,0.2465 0.0297,0.476 0.0892,0.6885 0.068,0.204 0.17425,0.3825 0.31875,0.5355 0.153,0.1445 0.35275,0.25925 0.59925,0.34425 0.2465,0.085 0.5525,0.1275 0.918,0.1275 0.323,0 0.57375,-0.0468 0.75225,-0.14025 0.1785,-0.0935 0.36975,-0.238 0.57375,-0.4335 l 1.1475,0.47175 c -0.27201,0.459 -0.63325,0.799 -1.08375,1.02 -0.4505,0.2125 -0.935,0.31875 -1.4535,0.31875 -1.0625,0 -1.87,-0.27625 -2.4225,-0.82875 -0.5525,-0.5525 -0.82875,-1.3685 -0.82875,-2.448 l 0,-0.14025 c 0,-0.11049 0,-0.21674 0,-0.31875 0,-0.10199 0.004,-0.19974 0.0127,-0.29325 0.017,-0.40799 0.1105,-0.77774 0.2805,-1.10925 0.17,-0.33149 0.39525,-0.61624 0.67575,-0.85425 0.2805,-0.23799 0.6035,-0.42074 0.969,-0.54825 0.3655,-0.12749 0.75225,-0.19124 1.16025,-0.19125 0.4675,10e-6 0.884,0.0765 1.2495,0.2295 0.3655,0.14451 0.67575,0.35276 0.93075,0.62475 0.25499,0.26351 0.44624,0.58651 0.57375,0.969 0.13599,0.37401 0.20399,0.79051 0.204,1.2495 l 0,0.72675 -4.6665,0 m 0,-1.18575 3.27675,0 c 0,-0.20399 -0.0383,-0.39099 -0.11475,-0.561 -0.0765,-0.16999 -0.187,-0.31449 -0.3315,-0.4335 -0.136,-0.11899 -0.30175,-0.21249 -0.49725,-0.2805 -0.187,-0.068 -0.39525,-0.10199 -0.62475,-0.102 -0.2125,1e-5 -0.42075,0.0255 -0.62475,0.0765 -0.204,0.051 -0.38675,0.13601 -0.54825,0.255 -0.1615,0.11051 -0.29325,0.25501 -0.39525,0.4335 -0.0935,0.17001 -0.14025,0.37401 -0.14025,0.612"
                 id="path3207"
                 style="font-size:12.75px;font-variant:normal;font-weight:normal;writing-mode:lr-tb;fill:#656263;fill-opacity:1;fill-rule:nonzero;stroke:none;font-family:Casper Bold;-inkscape-font-specification:Casper" /><path
                 d="m 478.81005,-351.89501 c -0.18701,-0.11049 -0.40376,-0.18699 -0.65025,-0.2295 -0.23801,-0.0425 -0.46326,-0.0637 -0.67575,-0.0638 -0.34001,10e-6 -0.62901,0.0468 -0.867,0.14025 -0.22951,0.0935 -0.42076,0.22526 -0.57375,0.39525 -0.14451,0.17001 -0.25076,0.37401 -0.31875,0.612 -0.0595,0.23801 -0.0893,0.49726 -0.0893,0.77775 l 0,0.47175 c -10e-6,0.238 0.017,0.47175 0.051,0.70125 0.034,0.221 0.0977,0.4165 0.19125,0.5865 0.10199,0.17 0.23799,0.31025 0.408,0.42075 0.16999,0.102 0.39099,0.153 0.663,0.153 0.17849,0 0.35274,-0.0298 0.52275,-0.0892 0.17849,-0.0595 0.34849,-0.136 0.51,-0.2295 0.16149,-0.102 0.31024,-0.2125 0.44625,-0.3315 0.14449,-0.119 0.27199,-0.24225 0.3825,-0.36975 l 0,-2.94525 m 0,-3.58275 1.38975,-0.3825 0,7.548 c -10e-6,0.1615 0.008,0.306 0.0255,0.4335 0.017,0.1275 0.0382,0.2465 0.0637,0.357 0.034,0.102 0.0722,0.2125 0.11475,0.3315 0.0425,0.1105 0.0977,0.22525 0.16575,0.34425 l -1.46625,0 c -0.051,-0.085 -0.10201,-0.19975 -0.153,-0.34425 -0.034,-0.153 -0.0595,-0.289 -0.0765,-0.408 -0.25501,0.255 -0.54826,0.47175 -0.87975,0.65025 -0.32301,0.17 -0.67151,0.255 -1.0455,0.255 -0.44201,0 -0.83301,-0.0722 -1.173,-0.21675 -0.33151,-0.1445 -0.61201,-0.34425 -0.8415,-0.59925 -0.2295,-0.255 -0.40375,-0.55675 -0.52275,-0.90525 -0.1105,-0.357 -0.16575,-0.7395 -0.16575,-1.1475 l 0,-0.612 c 0,-1.07949 0.28475,-1.89124 0.85425,-2.43525 0.56949,-0.54399 1.39824,-0.81599 2.48625,-0.816 0.41649,10e-6 0.82449,0.0808 1.224,0.24225 l 0,-2.295"
                 id="path3209"
                 style="font-size:12.75px;font-variant:normal;font-weight:normal;writing-mode:lr-tb;fill:#656263;fill-opacity:1;fill-rule:nonzero;stroke:none;font-family:Casper Bold;-inkscape-font-specification:Casper" /><path
                 d="m 482.4948,-349.62551 c 0,0.2465 0.0297,0.476 0.0892,0.6885 0.068,0.204 0.17425,0.3825 0.31875,0.5355 0.153,0.1445 0.35275,0.25925 0.59925,0.34425 0.2465,0.085 0.55249,0.1275 0.918,0.1275 0.32299,0 0.57374,-0.0468 0.75225,-0.14025 0.17849,-0.0935 0.36974,-0.238 0.57375,-0.4335 l 1.1475,0.47175 c -0.27201,0.459 -0.63326,0.799 -1.08375,1.02 -0.45051,0.2125 -0.93501,0.31875 -1.4535,0.31875 -1.0625,0 -1.87,-0.27625 -2.4225,-0.82875 -0.5525,-0.5525 -0.82875,-1.3685 -0.82875,-2.448 l 0,-0.14025 c 0,-0.11049 0,-0.21674 0,-0.31875 0,-0.10199 0.004,-0.19974 0.0127,-0.29325 0.017,-0.40799 0.1105,-0.77774 0.2805,-1.10925 0.17,-0.33149 0.39525,-0.61624 0.67575,-0.85425 0.2805,-0.23799 0.6035,-0.42074 0.969,-0.54825 0.3655,-0.12749 0.75225,-0.19124 1.16025,-0.19125 0.46749,10e-6 0.88399,0.0765 1.2495,0.2295 0.36549,0.14451 0.67574,0.35276 0.93075,0.62475 0.25499,0.26351 0.44624,0.58651 0.57375,0.969 0.13599,0.37401 0.20399,0.79051 0.204,1.2495 l 0,0.72675 -4.6665,0 m 0,-1.18575 3.27675,0 c -1e-5,-0.20399 -0.0383,-0.39099 -0.11475,-0.561 -0.0765,-0.16999 -0.18701,-0.31449 -0.3315,-0.4335 -0.13601,-0.11899 -0.30176,-0.21249 -0.49725,-0.2805 -0.18701,-0.068 -0.39526,-0.10199 -0.62475,-0.102 -0.21251,1e-5 -0.42075,0.0255 -0.62475,0.0765 -0.204,0.051 -0.38675,0.13601 -0.54825,0.255 -0.1615,0.11051 -0.29325,0.25501 -0.39525,0.4335 -0.0935,0.17001 -0.14025,0.37401 -0.14025,0.612"
                 id="path3211"
                 style="font-size:12.75px;font-variant:normal;font-weight:normal;writing-mode:lr-tb;fill:#656263;fill-opacity:1;fill-rule:nonzero;stroke:none;font-family:Casper Bold;-inkscape-font-specification:Casper" /><path
                 d="m 493.5108,-355.70726 0,7.5225 4.3095,0 -0.39525,1.33875 -5.355,0 0,-8.86125 1.44075,0"
                 id="path3213"
                 style="font-size:12.75px;font-variant:normal;font-weight:normal;writing-mode:lr-tb;fill:#656263;fill-opacity:1;fill-rule:nonzero;stroke:none;font-family:Casper Bold;-inkscape-font-specification:Casper" /><path
                 d="m 498.68732,-346.84601 0,-6.426 1.38975,0 0,6.426 -1.38975,0 m 0.663,-9.01425 c 0.2125,10e-6 0.391,0.068 0.5355,0.204 0.153,0.15301 0.2295,0.33151 0.2295,0.5355 0,0.22101 -0.0765,0.39951 -0.2295,0.5355 -0.1445,0.13601 -0.323,0.20401 -0.5355,0.204 -0.221,10e-6 -0.3995,-0.068 -0.5355,-0.204 -0.153,-0.13599 -0.2295,-0.31449 -0.2295,-0.5355 0,-0.20399 0.0765,-0.38249 0.2295,-0.5355 0.136,-0.13599 0.3145,-0.20399 0.5355,-0.204"
                 id="path3215"
                 style="font-size:12.75px;font-variant:normal;font-weight:normal;writing-mode:lr-tb;fill:#656263;fill-opacity:1;fill-rule:nonzero;stroke:none;font-family:Casper Bold;-inkscape-font-specification:Casper" /><path
                 d="m 501.1353,-355.47776 1.38975,-0.3825 0,7.1655 c 0,0.51 0.2635,0.765 0.7905,0.765 l 0.49725,0 0,1.08375 c -0.136,0.0425 -0.306,0.0765 -0.51,0.102 -0.204,0.034 -0.37825,0.051 -0.52275,0.051 -0.238,0 -0.459,-0.0383 -0.663,-0.11475 -0.1955,-0.0765 -0.36975,-0.18275 -0.52275,-0.31875 -0.1445,-0.1445 -0.25925,-0.3145 -0.34425,-0.51 -0.0765,-0.1955 -0.11475,-0.408 -0.11475,-0.6375 l 0,-7.20375"
                 id="path3217"
                 style="font-size:12.75px;font-variant:normal;font-weight:normal;writing-mode:lr-tb;fill:#656263;fill-opacity:1;fill-rule:nonzero;stroke:none;font-family:Casper Bold;-inkscape-font-specification:Casper" /><path
                 d="m 504.38655,-355.47776 1.38975,-0.3825 0,7.1655 c 0,0.51 0.2635,0.765 0.7905,0.765 l 0.49725,0 0,1.08375 c -0.136,0.0425 -0.306,0.0765 -0.51,0.102 -0.204,0.034 -0.37825,0.051 -0.52275,0.051 -0.238,0 -0.459,-0.0383 -0.663,-0.11475 -0.1955,-0.0765 -0.36975,-0.18275 -0.52275,-0.31875 -0.1445,-0.1445 -0.25925,-0.3145 -0.34425,-0.51 -0.0765,-0.1955 -0.11475,-0.408 -0.11475,-0.6375 l 0,-7.20375"
                 id="path3219"
                 style="font-size:12.75px;font-variant:normal;font-weight:normal;writing-mode:lr-tb;fill:#656263;fill-opacity:1;fill-rule:nonzero;stroke:none;font-family:Casper Bold;-inkscape-font-specification:Casper" /><path
                 d="m 508.92555,-349.62551 c 0,0.2465 0.0298,0.476 0.0892,0.6885 0.068,0.204 0.17425,0.3825 0.31875,0.5355 0.153,0.1445 0.35275,0.25925 0.59925,0.34425 0.2465,0.085 0.5525,0.1275 0.918,0.1275 0.323,0 0.57375,-0.0468 0.75225,-0.14025 0.1785,-0.0935 0.36975,-0.238 0.57375,-0.4335 l 1.1475,0.47175 c -0.272,0.459 -0.63325,0.799 -1.08375,1.02 -0.4505,0.2125 -0.935,0.31875 -1.4535,0.31875 -1.0625,0 -1.87,-0.27625 -2.4225,-0.82875 -0.5525,-0.5525 -0.82875,-1.3685 -0.82875,-2.448 l 0,-0.14025 c 0,-0.11049 0,-0.21674 0,-0.31875 0,-0.10199 0.004,-0.19974 0.0127,-0.29325 0.017,-0.40799 0.1105,-0.77774 0.2805,-1.10925 0.17,-0.33149 0.39525,-0.61624 0.67575,-0.85425 0.2805,-0.23799 0.6035,-0.42074 0.969,-0.54825 0.3655,-0.12749 0.75225,-0.19124 1.16025,-0.19125 0.4675,10e-6 0.884,0.0765 1.2495,0.2295 0.3655,0.14451 0.67575,0.35276 0.93075,0.62475 0.255,0.26351 0.44625,0.58651 0.57375,0.969 0.136,0.37401 0.204,0.79051 0.204,1.2495 l 0,0.72675 -4.6665,0 m 0,-1.18575 3.27675,0 c 0,-0.20399 -0.0383,-0.39099 -0.11475,-0.561 -0.0765,-0.16999 -0.187,-0.31449 -0.3315,-0.4335 -0.136,-0.11899 -0.30175,-0.21249 -0.49725,-0.2805 -0.187,-0.068 -0.39525,-0.10199 -0.62475,-0.102 -0.2125,1e-5 -0.42075,0.0255 -0.62475,0.0765 -0.204,0.051 -0.38675,0.13601 -0.54825,0.255 -0.1615,0.11051 -0.29325,0.25501 -0.39525,0.4335 -0.0935,0.17001 -0.14025,0.37401 -0.14025,0.612"
                 id="path3221"
                 style="font-size:12.75px;font-variant:normal;font-weight:normal;writing-mode:lr-tb;fill:#656263;fill-opacity:1;fill-rule:nonzero;stroke:none;font-family:Casper Bold;-inkscape-font-specification:Casper" /></g><g
               transform="translate(317.3449,399.3319)"
               id="g3186"><path
                 d="m 0,0 c 0,-1.731 0.111,-3.453 0.337,-5.166 0.224,-1.712 0.726,-3.269 1.506,-4.674 0.778,-1.4 1.919,-2.534 3.425,-3.4 1.507,-0.863 3.557,-1.295 6.154,-1.295 1.556,0 3.054,0.284 4.49,0.855 1.437,0.571 2.708,1.443 3.817,2.623 l 3.27,-3.065 c -1.523,-1.627 -3.289,-2.812 -5.295,-3.556 -2.01,-0.743 -4.102,-1.117 -6.282,-1.117 -3.082,0 -5.661,0.476 -7.736,1.428 -2.078,0.952 -3.747,2.259 -5.012,3.92 -1.263,1.663 -2.173,3.635 -2.725,5.919 -0.554,2.285 -0.831,4.759 -0.831,7.426 l 0,1.919 c 0,2.63 0.338,4.976 1.013,7.037 0.675,2.057 1.686,3.806 3.038,5.242 1.35,1.437 3.044,2.537 5.086,3.298 2.044,0.76 4.432,1.141 7.167,1.141 2.11,0 4.179,-0.355 6.204,-1.064 2.024,-0.709 3.78,-1.826 5.27,-3.347 l -3.167,-3.168 c -1.073,1.107 -2.345,1.928 -3.817,2.466 -1.47,0.535 -2.968,0.805 -4.49,0.805 -2.284,0 -4.163,-0.372 -5.635,-1.117 C 4.316,12.366 3.148,11.398 2.283,10.202 1.418,9.008 0.821,7.665 0.493,6.18 0.163,4.69 0,3.201 0,1.714"
                 id="path3188"
                 style="fill:#ffffff;fill-opacity:1;fill-rule:nonzero;stroke:none" /></g><g
               transform="scale(1,-1)"
               id="text3190"><path
                 d="m 367.69524,-393.7034 c -0.38076,-0.48457 -0.86534,-0.8307 -1.45375,-1.03839 -0.58844,-0.20767 -1.17686,-0.3115 -1.76527,-0.31152 l -3.4267,0 0,14.79711 -5.86692,0 0,-36.08419 17.02966,0 c 1.52295,4e-5 2.92478,0.24233 4.20549,0.72688 1.28066,0.48462 2.37098,1.19419 3.27094,2.12871 0.93453,0.89997 1.66141,1.99028 2.18063,3.27094 0.51917,1.2461 0.77877,2.64793 0.7788,4.20549 -3e-5,3.11521 -0.79613,5.67658 -2.38831,7.68412 -1.55762,1.97296 -3.79016,3.06328 -6.69764,3.27094 l 6.8534,8.67059 c 0.55378,0.69227 1.05567,1.14224 1.50567,1.34991 0.44994,0.20769 1.10759,0.31153 1.97295,0.31152 l 0,4.46509 c -0.34616,0.17307 -0.76152,0.31152 -1.24607,0.41536 -0.48462,0.13845 -0.93459,0.20768 -1.34992,0.20768 -1.03842,0 -1.97297,-0.34613 -2.80366,-1.03839 -0.83074,-0.72688 -1.54031,-1.47106 -2.12871,-2.23255 l -8.67059,-10.7993 m -6.64572,-6.74956 9.70899,0 c 2.21522,2e-5 3.7728,-0.39803 4.67277,-1.19415 0.89992,-0.83069 1.34989,-2.28444 1.34991,-4.36126 -2e-5,-1.6614 -0.41538,-2.89016 -1.24607,-3.6863 -0.79613,-0.83068 -2.18065,-1.24604 -4.15358,-1.24607 l -10.33202,0 0,10.48778"
                 id="path3094"
                 style="font-size:51.91970062px;font-variant:normal;font-weight:normal;writing-mode:lr-tb;fill:#438394;fill-opacity:1;fill-rule:nonzero;stroke:none;font-family:Casper Bold;-inkscape-font-specification:Casper" /><path
                 d="m 396.97793,-416.34039 0,36.08419 -5.86693,0 0,-36.08419 5.86693,0"
                 id="path3096"
                 style="font-size:51.91970062px;font-variant:normal;font-weight:normal;writing-mode:lr-tb;fill:#438394;fill-opacity:1;fill-rule:nonzero;stroke:none;font-family:Casper Bold;-inkscape-font-specification:Casper" /><path
                 d="m 404.81782,-407.20252 c 0,-1.79985 0.41536,-3.30552 1.24607,-4.51701 0.83071,-1.24604 1.90372,-2.24982 3.21903,-3.01135 1.31529,-0.79606 2.76904,-1.36718 4.36125,-1.71335 1.6268,-0.34609 3.21901,-0.51916 4.77661,-0.51919 1.10761,3e-5 2.21522,0.12118 3.32286,0.36343 1.14222,0.20772 2.24984,0.53654 3.32286,0.98648 1.07299,0.41539 2.07677,0.95189 3.01135,1.60951 0.93452,0.62307 1.76524,1.34994 2.49214,2.18063 l -3.99781,3.58246 c -1.21149,-1.21143 -2.54409,-2.04215 -3.99782,-2.49215 -1.41916,-0.48455 -2.99405,-0.72684 -4.72469,-0.72688 -0.79612,4e-5 -1.60953,0.0693 -2.44023,0.20768 -0.79611,0.13849 -1.5403,0.36347 -2.23255,0.67496 -0.69227,0.31155 -1.26339,0.72691 -1.71335,1.24607 -0.41536,0.51923 -0.62304,1.15957 -0.62303,1.92103 -10e-6,0.86536 0.10383,1.57492 0.31151,2.12871 0.24229,0.55383 0.57111,1.02111 0.98648,1.40183 0.44996,0.34616 0.96916,0.64037 1.55759,0.88264 0.58841,0.24231 1.24606,0.4846 1.97295,0.72687 1.66141,0.55383 3.34015,1.02111 5.03621,1.40183 1.69602,0.34616 3.35745,0.91727 4.98429,1.71335 1.79986,0.86535 3.2363,2.00758 4.30934,3.4267 1.10759,1.41916 1.6614,3.27096 1.66143,5.55541 -3e-5,1.97296 -0.41539,3.63439 -1.24608,4.98429 -0.83074,1.34992 -1.90375,2.44023 -3.21902,3.27094 -1.31532,0.83072 -2.80368,1.41914 -4.46509,1.76527 -1.62684,0.34614 -3.27096,0.5192 -4.93237,0.5192 -1.45377,0 -2.89021,-0.17306 -4.30934,-0.5192 -1.41915,-0.31151 -2.76906,-0.7961 -4.04974,-1.45375 -1.24607,-0.65764 -2.38831,-1.47105 -3.4267,-2.44022 -1.03839,-0.96917 -1.90372,-2.1114 -2.59598,-3.4267 l 4.82853,-2.54407 c 1.00378,1.5576 2.30177,2.76906 3.89398,3.63438 1.6268,0.86533 3.53052,1.298 5.71117,1.29799 0.96915,10e-6 1.92101,-0.0865 2.85558,-0.2596 0.96915,-0.17306 1.81717,-0.44996 2.54407,-0.83071 0.76146,-0.38074 1.36719,-0.88263 1.81718,-1.50567 0.48456,-0.65764 0.72686,-1.43644 0.72688,-2.33639 -2e-5,-0.79609 -0.12117,-1.45374 -0.36344,-1.97295 -0.24231,-0.5538 -0.58844,-1.00377 -1.03839,-1.34991 -0.44999,-0.34612 -0.96919,-0.64033 -1.55759,-0.88263 -0.58845,-0.24228 -1.21148,-0.46727 -1.86911,-0.67496 -1.69606,-0.58841 -3.40941,-1.07299 -5.14005,-1.45375 -1.69606,-0.38073 -3.35749,-0.96915 -4.98429,-1.76527 -0.89995,-0.44995 -1.73067,-0.91723 -2.49215,-1.40183 -0.72688,-0.51918 -1.34992,-1.12491 -1.86911,-1.81719 -0.5192,-0.72686 -0.93456,-1.55757 -1.24607,-2.49215 -0.27691,-0.93453 -0.41536,-2.05945 -0.41536,-3.37478"
                 id="path3098"
                 style="font-size:51.91970062px;font-variant:normal;font-weight:normal;writing-mode:lr-tb;fill:#438394;fill-opacity:1;fill-rule:nonzero;stroke:none;font-family:Casper Bold;-inkscape-font-specification:Casper" /><path
                 d="m 438.46177,-401.75095 -2.95942,0 0,-4.67277 2.95942,0 0,-5.60733 5.65925,-1.24607 0,6.8534 4.15358,0 -1.45376,4.67277 -2.69982,0 0,13.9664 c -10e-6,2.07679 1.073,3.11518 3.21902,3.11518 l 1.29799,0 0,4.46509 c -0.48459,0.17307 -0.96918,0.31152 -1.45375,0.41536 -0.44998,0.10384 -0.93456,0.15576 -1.45375,0.15576 -0.96918,0 -1.90373,-0.13845 -2.80366,-0.41536 -0.86534,-0.24229 -1.62683,-0.64034 -2.28447,-1.19415 -0.65766,-0.55381 -1.19416,-1.26338 -1.60951,-2.12871 -0.38075,-0.89993 -0.57112,-1.97294 -0.57112,-3.21902 l 0,-15.16055"
                 id="path3100"
                 style="font-size:51.91970062px;font-variant:normal;font-weight:normal;writing-mode:lr-tb;fill:#438394;fill-opacity:1;fill-rule:nonzero;stroke:none;font-family:Casper Bold;-inkscape-font-specification:Casper" /><path
                 d="m 464.5774,-395.62443 10.85122,0 -4.72469,-12.09729 -0.83072,-4.04973 -0.83071,4.04973 -4.4651,12.09729 m -1.76527,5.08813 -3.79013,10.2801 -6.17845,0 13.4472,-36.08419 7.00916,0 14.12216,36.08419 -6.0746,0 -3.99782,-10.2801 -14.53752,0"
                 id="path3102"
                 style="font-size:51.91970062px;font-variant:normal;font-weight:normal;writing-mode:lr-tb;fill:#438394;fill-opacity:1;fill-rule:nonzero;stroke:none;font-family:Casper Bold;-inkscape-font-specification:Casper" /><path
                 d="m 498.11751,-416.34039 0,30.63263 17.54886,0 -1.60951,5.45156 -21.80627,0 0,-36.08419 5.86692,0"
                 id="path3104"
                 style="font-size:51.91970062px;font-variant:normal;font-weight:normal;writing-mode:lr-tb;fill:#438394;fill-opacity:1;fill-rule:nonzero;stroke:none;font-family:Casper Bold;-inkscape-font-specification:Casper" /></g><g
               transform="translate(278.4218,364.6111)"
               id="g3194"><path
                 d="m 0,0 c -11.803,0 -21.367,9.564 -21.367,21.369 0,0.476 0.015,0.949 0.045,1.416 l 42.645,0 c 0.031,-0.467 0.046,-0.94 0.046,-1.416 C 21.369,9.564 11.801,0 0,0"
                 id="path3196"
                 style="fill:#b2b1b1;fill-opacity:1;fill-rule:nonzero;stroke:none" /></g><g
               transform="translate(299.7448,387.3961)"
               id="g3198"><path
                 d="m 0,0 -42.645,0 c 0.73,11.14 9.995,19.951 21.322,19.951 C -9.998,19.951 -0.729,11.14 0,0"
                 id="path3200"
                 style="fill:#87a2a9;fill-opacity:1;fill-rule:nonzero;stroke:none" /></g></g></g></g></g></g></svg>