<?xml version="1.0" encoding="UTF-8" standalone="no"?>
<!-- Created with Inkscape (http://www.inkscape.org/) -->

<svg
   xmlns:dc="http://purl.org/dc/elements/1.1/"
   xmlns:cc="http://creativecommons.org/ns#"
   xmlns:rdf="http://www.w3.org/1999/02/22-rdf-syntax-ns#"
   xmlns:svg="http://www.w3.org/2000/svg"
   xmlns="http://www.w3.org/2000/svg"
   version="1.1"
   width="720"
   height="276.25"
   id="svg2"
   xml:space="preserve"><metadata
     id="metadata8"><rdf:RDF><cc:Work
         rdf:about=""><dc:format>image/svg+xml</dc:format><dc:type
           rdf:resource="http://purl.org/dc/dcmitype/StillImage" /><dc:title></dc:title></cc:Work></rdf:RDF></metadata><defs
     id="defs6"><clipPath
       id="clipPath18"><path
         d="M 0,0 576,0 576,221 0,221 0,0 z"
         id="path20" /></clipPath><clipPath
       id="clipPath70"><path
         d="m 0,220.155 575.123,0 0,-220.095 L 0,0.06 0,220.155 z"
         id="path72" /></clipPath><clipPath
       id="clipPath76"><path
         d="M 0,0 576,0 576,221 0,221 0,0 z"
         id="path78" /></clipPath><clipPath
       id="clipPath88"><path
         d="M 0,0 576,0 576,221 0,221 0,0 z"
         id="path90" /></clipPath><clipPath
       id="clipPath126"><path
         d="m 0,220.155 575.123,0 0,-220.095 L 0,0.06 0,220.155 z"
         id="path128" /></clipPath><clipPath
       id="clipPath132"><path
         d="M 0,0 576,0 576,221 0,221 0,0 z"
         id="path134" /></clipPath><clipPath
       id="clipPath144"><path
         d="M 0,0 576,0 576,221 0,221 0,0 z"
         id="path146" /></clipPath></defs><g
     transform="matrix(1.25,0,0,-1.25,0,276.25)"
     id="g10"><g
       id="g12" /><g
       id="g14"><g
         clip-path="url(#clipPath18)"
         id="g16"><path
           d="m 279.121,40.387 c 0,2.747 -1.599,4.464 -5.525,5.928 -3.658,1.33 -3.931,2.156 -3.931,3.318 0,1.333 1.223,2.3 2.91,2.3 1.446,0 2.777,-0.543 4.066,-1.658 l 0.468,-0.404 1.911,2.462 -0.418,0.364 c -1.752,1.526 -3.642,2.236 -5.948,2.236 -3.52,0 -6.175,-2.358 -6.175,-5.54 0,-3.201 2.193,-4.661 5.741,-5.982 3.442,-1.22 3.715,-2.114 3.715,-3.183 0,-1.495 -1.284,-2.54 -3.122,-2.54 -1.761,0 -3.202,0.643 -4.819,2.148 l -0.455,0.424 -1.993,-2.416 0.404,-0.376 c 2.008,-1.87 4.245,-2.779 6.837,-2.779 3.67,0 6.334,2.374 6.334,5.698"
           id="path22"
           style="fill:#231f20;fill-opacity:1;fill-rule:nonzero;stroke:none" /><path
           d="m 297.064,39.618 c -1.408,-1.352 -2.618,-1.903 -4.176,-1.903 -3.16,0 -5.453,2.973 -5.453,7.07 l 0,0.105 c 0,4.066 2.293,7.017 5.453,7.017 1.493,0 2.779,-0.564 4.045,-1.772 l 0.461,-0.44 1.962,2.432 -0.401,0.372 c -1.223,1.134 -3.015,2.434 -6.041,2.434 -5.052,0 -8.719,-4.234 -8.719,-10.069 l 0,-0.159 c 0,-5.804 3.612,-10.016 8.587,-10.016 2.444,0 4.385,0.836 6.291,2.711 l 0.392,0.386 -1.956,2.26 -0.445,-0.428"
           id="path24"
           style="fill:#231f20;fill-opacity:1;fill-rule:nonzero;stroke:none" /><path
           d="m 304.826,54.668 3.159,0 0,-19.714 -3.159,0 0,19.714 z"
           id="path26"
           style="fill:#231f20;fill-opacity:1;fill-rule:nonzero;stroke:none" /><path
           d="m 318.021,43.404 8.371,0 0,2.973 -8.371,0 0,5.292 9.325,0 0,2.999 -12.484,0 0,-19.714 12.616,0 0,3 -9.457,0 0,5.45"
           id="path28"
           style="fill:#231f20;fill-opacity:1;fill-rule:nonzero;stroke:none" /><path
           d="m 344.87,41.429 -8.795,13.239 -2.781,0 0,-19.714 3.105,0 0,13.585 9.034,-13.585 2.57,0 0,19.714 -3.133,0 0,-13.239"
           id="path30"
           style="fill:#231f20;fill-opacity:1;fill-rule:nonzero;stroke:none" /><path
           d="m 366.872,39.618 c -1.407,-1.352 -2.618,-1.903 -4.178,-1.903 -3.159,0 -5.453,2.973 -5.453,7.07 l 0,0.105 c 0,4.066 2.294,7.017 5.453,7.017 1.494,0 2.78,-0.564 4.047,-1.772 l 0.461,-0.44 1.962,2.432 -0.401,0.372 c -1.223,1.134 -3.015,2.434 -6.041,2.434 -5.052,0 -8.719,-4.234 -8.719,-10.069 l 0,-0.159 c 0,-5.804 3.61,-10.016 8.586,-10.016 2.445,0 4.386,0.836 6.292,2.711 l 0.392,0.386 -1.956,2.26 -0.445,-0.428"
           id="path32"
           style="fill:#231f20;fill-opacity:1;fill-rule:nonzero;stroke:none" /><path
           d="m 377.606,43.404 8.37,0 0,2.973 -8.37,0 0,5.292 9.325,0 0,2.999 -12.483,0 0,-19.714 12.615,0 0,3 -9.457,0 0,5.45"
           id="path34"
           style="fill:#231f20;fill-opacity:1;fill-rule:nonzero;stroke:none" /><path
           d="m 398.685,37.688 c -1.761,0 -3.203,0.643 -4.82,2.149 l -0.456,0.423 -1.991,-2.416 0.404,-0.376 c 2.008,-1.87 4.244,-2.779 6.835,-2.779 3.67,0 6.334,2.374 6.334,5.698 0,2.747 -1.598,4.464 -5.524,5.928 -3.656,1.33 -3.931,2.156 -3.931,3.318 0,1.333 1.225,2.3 2.91,2.3 1.447,0 2.777,-0.543 4.066,-1.658 l 0.467,-0.404 1.913,2.462 -0.418,0.364 c -1.752,1.526 -3.643,2.236 -5.95,2.236 -3.519,0 -6.173,-2.358 -6.173,-5.54 0,-3.201 2.192,-4.661 5.739,-5.982 3.443,-1.22 3.718,-2.114 3.718,-3.183 0,-1.495 -1.285,-2.54 -3.123,-2.54"
           id="path36"
           style="fill:#231f20;fill-opacity:1;fill-rule:nonzero;stroke:none" /><path
           d="m 270.168,10.805 8.371,0 0,2.973 -8.371,0 0,5.292 9.324,0 0,3 -12.484,0 0,-19.715 12.617,0 0,3 -9.457,0 0,5.45"
           id="path38"
           style="fill:#231f20;fill-opacity:1;fill-rule:nonzero;stroke:none" /><path
           d="m 284.222,19.044 5.192,0 0,-16.689 3.159,0 0,16.689 5.219,0 0,3.026 -13.57,0 0,-3.026"
           id="path40"
           style="fill:#231f20;fill-opacity:1;fill-rule:nonzero;stroke:none" /><path
           d="m 312.372,19.044 5.192,0 0,-16.689 3.16,0 0,16.689 5.218,0 0,3.026 -13.57,0 0,-3.026"
           id="path42"
           style="fill:#231f20;fill-opacity:1;fill-rule:nonzero;stroke:none" /><path
           d="m 334.599,10.805 8.371,0 0,2.973 -8.371,0 0,5.292 9.324,0 0,3 -12.483,0 0,-19.715 12.616,0 0,3 -9.457,0 0,5.45"
           id="path44"
           style="fill:#231f20;fill-opacity:1;fill-rule:nonzero;stroke:none" /><path
           d="m 361.946,7.019 c -1.407,-1.35 -2.617,-1.902 -4.177,-1.902 -3.16,0 -5.454,2.974 -5.454,7.069 l 0,0.106 c 0,4.065 2.294,7.016 5.454,7.016 1.494,0 2.779,-0.563 4.046,-1.771 l 0.461,-0.441 1.962,2.432 -0.401,0.372 c -1.223,1.134 -3.015,2.435 -6.041,2.435 -5.052,0 -8.719,-4.235 -8.719,-10.07 l 0,-0.159 c 0,-5.804 3.611,-10.015 8.586,-10.015 2.444,0 4.385,0.835 6.292,2.71 l 0.393,0.386 -1.956,2.26 -0.446,-0.428"
           id="path46"
           style="fill:#231f20;fill-opacity:1;fill-rule:nonzero;stroke:none" /><path
           d="m 380.462,13.778 -7.781,0 0,8.292 -3.159,0 0,-19.715 3.159,0 0,8.398 7.781,0 0,-8.398 3.16,0 0,19.715 -3.16,0 0,-8.292"
           id="path48"
           style="fill:#231f20;fill-opacity:1;fill-rule:nonzero;stroke:none" /><path
           d="m 401.913,8.831 -8.795,13.239 -2.779,0 0,-19.715 3.105,0 0,13.585 9.034,-13.585 2.568,0 0,19.715 -3.133,0 0,-13.239"
           id="path50"
           style="fill:#231f20;fill-opacity:1;fill-rule:nonzero;stroke:none" /><path
           d="m 419.632,5.063 c -3.099,0 -5.348,2.974 -5.348,7.07 l 0,0.185 c 0,4.081 2.238,7.043 5.322,7.043 3.099,0 5.348,-2.974 5.348,-7.069 l 0,-0.186 c 0,-4.081 -2.238,-7.043 -5.322,-7.043 z m 0,17.298 c -4.976,0 -8.586,-4.234 -8.586,-10.069 l 0,-0.212 c 0,-5.804 3.6,-10.016 8.56,-10.016 4.959,0 8.559,4.235 8.559,10.069 l 0,0.211 c 0,5.805 -3.589,10.017 -8.533,10.017"
           id="path52"
           style="fill:#231f20;fill-opacity:1;fill-rule:nonzero;stroke:none" /><path
           d="m 437.323,22.07 -3.158,0 0,-19.715 11.768,0 0,3 -8.61,0 0,16.715"
           id="path54"
           style="fill:#231f20;fill-opacity:1;fill-rule:nonzero;stroke:none" /><path
           d="m 458.296,5.063 c -3.099,0 -5.348,2.974 -5.348,7.07 l 0,0.185 c 0,4.081 2.239,7.043 5.323,7.043 3.098,0 5.347,-2.974 5.347,-7.069 l 0,-0.186 c 0,-4.081 -2.238,-7.043 -5.322,-7.043 z m 0,17.298 c -4.976,0 -8.586,-4.234 -8.586,-10.069 l 0,-0.212 c 0,-5.804 3.6,-10.016 8.561,-10.016 4.958,0 8.558,4.235 8.558,10.069 l 0,0.211 c 0,5.805 -3.589,10.017 -8.533,10.017"
           id="path56"
           style="fill:#231f20;fill-opacity:1;fill-rule:nonzero;stroke:none" /><path
           d="m 479.876,10.434 4.635,0 0,-4.335 c -0.947,-0.652 -2.2,-1.036 -3.414,-1.036 -3.49,0 -5.744,2.786 -5.744,7.097 l 0,0.132 c 0,4.065 2.337,7.016 5.558,7.016 1.617,0 2.84,-0.471 4.088,-1.575 l 0.477,-0.421 1.912,2.547 -0.436,0.357 c -1.818,1.485 -3.609,2.119 -5.988,2.119 -5.128,0 -8.85,-4.224 -8.85,-10.043 l 0,-0.186 c 0,-5.991 3.577,-10.015 8.903,-10.015 3.069,0 5.3,1.442 6.358,2.302 l 0.216,0.176 0,8.812 -7.715,0 0,-2.947"
           id="path58"
           style="fill:#231f20;fill-opacity:1;fill-rule:nonzero;stroke:none" /><path
           d="m 494.122,22.07 3.158,0 0,-19.715 -3.158,0 0,19.715 z"
           id="path60"
           style="fill:#231f20;fill-opacity:1;fill-rule:nonzero;stroke:none" /><path
           d="m 507.317,10.805 8.37,0 0,2.973 -8.37,0 0,5.292 9.325,0 0,3 -12.483,0 0,-19.715 12.615,0 0,3 -9.457,0 0,5.45"
           id="path62"
           style="fill:#231f20;fill-opacity:1;fill-rule:nonzero;stroke:none" /><path
           d="m 529.178,13.717 c -3.658,1.33 -3.933,2.156 -3.933,3.316 0,1.333 1.225,2.302 2.91,2.302 1.448,0 2.779,-0.543 4.068,-1.659 l 0.467,-0.405 1.911,2.463 -0.418,0.364 c -1.752,1.527 -3.642,2.237 -5.948,2.237 -3.521,0 -6.175,-2.359 -6.175,-5.54 0,-3.203 2.193,-4.662 5.741,-5.983 3.441,-1.22 3.716,-2.114 3.716,-3.182 0,-1.496 -1.285,-2.54 -3.123,-2.54 -1.761,0 -3.202,0.642 -4.818,2.147 l -0.455,0.425 -1.994,-2.416 0.404,-0.376 c 2.008,-1.87 4.244,-2.779 6.837,-2.779 3.67,0 6.334,2.374 6.334,5.698 0,2.747 -1.598,4.464 -5.524,5.928"
           id="path64"
           style="fill:#231f20;fill-opacity:1;fill-rule:nonzero;stroke:none" /></g></g><g
       id="g66"><g
         clip-path="url(#clipPath70)"
         id="g68"><g
           clip-path="url(#clipPath76)"
           id="g74"><path
             d="m 231.14,43.545 -7.927,-2.149 -1.704,9.334 12.816,3.853 7.408,0 0,-52.228 -10.593,0 0,41.19"
             id="path80"
             style="fill:#231f20;fill-opacity:1;fill-rule:nonzero;stroke:none" /><path
             d="M 185.887,217.897 0,217.897 0,89.494 C 0,36.017 40.018,0 92.761,0 c 14.225,0 27.537,2.634 39.406,7.513 l 0.005,-0.011 22.152,9.256 31.563,-14.403 0,215.542"
             id="path82"
             style="fill:#b41475;fill-opacity:1;fill-rule:nonzero;stroke:none" /></g></g></g><g
       id="g84"><g
         clip-path="url(#clipPath88)"
         id="g86"><path
           d="m 92.82,47.525 -41.116,18.758 0,110.271 41.116,0 0,-129.029"
           id="path92"
           style="fill:white;fill-opacity:1;fill-rule:nonzero;stroke:none" /><path
           d="m 146.11,87.736 -40.159,-18.322 0,-21.889 40.159,18.322 0,21.889"
           id="path94"
           style="fill:white;fill-opacity:1;fill-rule:nonzero;stroke:none" /><path
           d="m 353.091,164.23 c -4.08,8.052 -9.438,21.937 -10.551,36.371 -1.496,0 -8.447,0 -8.447,0 0,0 2.006,-26.002 14.611,-43.348 l 8.775,0 c 12.608,17.346 14.612,43.348 14.612,43.348 0,0 -6.949,0 -8.447,0 -1.114,-14.434 -6.469,-28.319 -10.553,-36.371"
           id="path96"
           style="fill:#231f20;fill-opacity:1;fill-rule:nonzero;stroke:none" /><path
           d="m 525.544,217.942 -8.664,0 0,-17.341 -5.289,0 0,-6.621 5.289,0 0,-24.302 c 0,-6.656 3.449,-12.425 12.057,-12.425 l 4.605,0 0,7.715 -3.117,0 c -3.637,0 -4.881,1.782 -4.881,5.239 l 0,23.773 7.998,0 0,6.621 -7.998,0 0,17.341"
           id="path98"
           style="fill:#231f20;fill-opacity:1;fill-rule:nonzero;stroke:none" /><path
           d="m 249.65,178.067 c 0,-8.05 -4.967,-13.251 -12.659,-13.251 -7.69,0 -12.66,5.201 -12.66,13.251 l 0,39.83 -8.841,0 0,-40.256 c 0,-5.926 2.188,-11.259 6.161,-15.013 3.904,-3.692 9.351,-5.724 15.34,-5.724 4.889,0 9.417,1.354 13.039,3.86 l 8.461,-3.86 0,60.993 -8.841,0 0,-39.83"
           id="path100"
           style="fill:#231f20;fill-opacity:1;fill-rule:nonzero;stroke:none" /><path
           d="m 300.649,196.931 c -2.521,2.437 -6.761,4.301 -12.981,4.301 -4.087,0 -7.859,-1.556 -10.231,-3.231 l -7.086,3.231 0,-43.981 8.67,0 0,26.25 c 0,6.72 3.804,9.607 8.647,9.607 4.843,0 8.645,-2.887 8.645,-9.607 l 0,-26.25 8.672,0 0,27.53 c 0,4.84 -1.021,8.918 -4.336,12.15"
           id="path102"
           style="fill:#231f20;fill-opacity:1;fill-rule:nonzero;stroke:none" /><path
           d="m 430.423,183.501 c 0,6.72 3.801,9.607 8.644,9.607 1.698,0 3.264,-0.354 4.588,-1.103 1.481,2.4 3.117,5.056 4.6,7.46 -2.371,1.082 -5.416,1.767 -9.188,1.767 -4.086,0 -7.859,-1.556 -10.232,-3.231 l -7.084,3.231 0,-43.981 8.672,0 0,26.25"
           id="path104"
           style="fill:#231f20;fill-opacity:1;fill-rule:nonzero;stroke:none" /><path
           d="m 315.858,200.601 8.663,0 0,-43.351 -8.663,0 0,43.351 z"
           id="path106"
           style="fill:#231f20;fill-opacity:1;fill-rule:nonzero;stroke:none" /><path
           d="m 315.858,217.941 8.663,0 0,-8.668 -8.663,0 0,8.668 z"
           id="path108"
           style="fill:#231f20;fill-opacity:1;fill-rule:nonzero;stroke:none" /><path
           d="m 493.442,200.601 8.664,0 0,-43.351 -8.664,0 0,43.351 z"
           id="path110"
           style="fill:#231f20;fill-opacity:1;fill-rule:nonzero;stroke:none" /><path
           d="m 493.442,217.941 8.664,0 0,-8.668 -8.664,0 0,8.668 z"
           id="path112"
           style="fill:#231f20;fill-opacity:1;fill-rule:nonzero;stroke:none" /><path
           d="m 359.417,120.61 8.664,0 0,-43.35 -8.664,0 0,43.35 z"
           id="path114"
           style="fill:#231f20;fill-opacity:1;fill-rule:nonzero;stroke:none" /><path
           d="m 359.417,137.953 8.664,0 0,-8.671 -8.664,0 0,8.671 z"
           id="path116"
           style="fill:#231f20;fill-opacity:1;fill-rule:nonzero;stroke:none" /><path
           d="m 386.351,182.498 c 0.041,1.266 0.105,2.301 0.269,3.231 0.16,0.903 0.41,1.715 0.842,2.716 1.264,3.029 4.584,4.914 8.66,4.914 2.906,0 6.736,-0.533 8.486,-3.065 0.389,-0.562 0.983,-2.059 0.461,-3.715 -0.636,-2.012 -2.64,-3.798 -5.959,-5.028 -4.439,-1.642 -9.486,-2.449 -12.732,-2.791 l -0.027,-0.002 0,3.74 z m 10.863,-25.876 c 3.701,0 6.644,0.548 9.267,1.722 2.336,1.047 4.463,2.607 6.899,5.056 l -5.147,4.869 c -1.55,-1.561 -3.06,-2.584 -4.746,-3.216 -1.67,-0.626 -3.552,-0.905 -6.107,-0.905 -5.34,0 -9.045,2.698 -10.434,7.598 l -0.006,0.027 0.028,0.003 c 4.322,0.577 12.261,1.273 18.92,4.879 3.24,1.756 5.613,3.796 6.707,6.75 0.855,2.313 1.22,5.198 0.49,7.832 -0.986,3.564 -2.647,5.644 -5.236,7.37 -2.94,1.955 -6.979,2.625 -11.748,2.625 -2.895,0 -5.52,-0.503 -7.801,-1.496 -2.25,-0.979 -4.184,-2.439 -5.742,-4.345 -1.557,-1.9 -2.75,-4.253 -3.549,-6.99 -0.807,-2.762 -1.217,-5.935 -1.217,-9.427 0,-7.783 1.902,-13.635 5.654,-17.399 3.274,-3.285 7.907,-4.953 13.768,-4.953"
           id="path118"
           style="fill:#231f20;fill-opacity:1;fill-rule:nonzero;stroke:none" /><path
           d="m 268.221,98.771 -0.029,-0.004 0,3.741 c 0.043,1.266 0.105,2.299 0.27,3.231 0.159,0.902 0.411,1.714 0.842,2.715 1.265,3.032 4.584,4.914 8.66,4.914 2.906,0 6.737,-0.531 8.488,-3.066 0.387,-0.561 0.981,-2.058 0.459,-3.714 -0.635,-2.012 -2.64,-3.796 -5.959,-5.028 -4.438,-1.641 -9.486,-2.449 -12.731,-2.789 z m 19.508,-2.106 c 3.243,1.756 5.615,3.797 6.709,6.749 0.856,2.313 1.218,5.198 0.489,7.834 -0.987,3.564 -2.647,5.641 -5.239,7.368 -2.937,1.955 -6.976,2.626 -11.747,2.626 -2.894,0 -5.518,-0.504 -7.799,-1.495 -2.251,-0.98 -4.184,-2.442 -5.743,-4.346 -1.556,-1.901 -2.75,-4.254 -3.548,-6.99 -0.807,-2.763 -1.216,-5.935 -1.216,-9.428 0,-7.782 1.901,-13.636 5.651,-17.397 3.277,-3.287 7.908,-4.952 13.77,-4.952 3.701,0 6.646,0.545 9.267,1.719 2.336,1.047 4.465,2.607 6.899,5.056 l -5.147,4.869 c -1.551,-1.561 -3.06,-2.583 -4.746,-3.216 -1.67,-0.626 -3.553,-0.904 -6.106,-0.904 -5.34,0 -9.046,2.699 -10.434,7.597 l -0.008,0.027 0.029,0.005 c 4.324,0.575 12.262,1.271 18.919,4.878"
           id="path120"
           style="fill:#231f20;fill-opacity:1;fill-rule:nonzero;stroke:none" /></g></g><g
       id="g122"><g
         clip-path="url(#clipPath126)"
         id="g124"><g
           clip-path="url(#clipPath132)"
           id="g130"><path
             d="m 435.294,98.771 -0.027,-0.004 0,3.741 c 0.043,1.266 0.105,2.299 0.269,3.231 0.158,0.902 0.41,1.714 0.842,2.715 1.266,3.032 4.582,4.914 8.658,4.914 2.908,0 6.74,-0.531 8.49,-3.066 0.387,-0.561 0.981,-2.058 0.459,-3.714 -0.634,-2.012 -2.638,-3.796 -5.959,-5.028 -4.437,-1.641 -9.486,-2.449 -12.732,-2.789 z m 19.51,-2.106 c 3.242,1.756 5.613,3.797 6.709,6.749 0.855,2.313 1.218,5.198 0.488,7.834 -0.986,3.564 -2.647,5.641 -5.238,7.368 -2.936,1.955 -6.977,2.626 -11.746,2.626 -2.897,0 -5.52,-0.504 -7.801,-1.495 -2.25,-0.98 -4.184,-2.442 -5.744,-4.346 -1.553,-1.901 -2.748,-4.254 -3.549,-6.99 -0.805,-2.763 -1.213,-5.935 -1.213,-9.428 0,-7.782 1.9,-13.636 5.65,-17.397 3.276,-3.287 7.909,-4.952 13.77,-4.952 3.699,0 6.646,0.545 9.267,1.719 2.336,1.047 4.465,2.607 6.897,5.056 l -5.145,4.869 c -1.55,-1.561 -3.06,-2.583 -4.746,-3.216 -1.67,-0.626 -3.55,-0.904 -6.105,-0.904 -5.342,0 -9.049,2.699 -10.436,7.597 l -0.008,0.027 0.032,0.005 c 4.322,0.575 12.261,1.271 18.918,4.878"
             id="path136"
             style="fill:#231f20;fill-opacity:1;fill-rule:nonzero;stroke:none" /><path
             d="m 547.997,178.758 0,3.74 c 0.041,1.266 0.104,2.301 0.27,3.231 0.158,0.903 0.41,1.715 0.839,2.716 1.266,3.029 4.586,4.914 8.663,4.914 2.906,0 6.736,-0.533 8.488,-3.065 0.387,-0.562 0.978,-2.059 0.457,-3.715 -0.635,-2.012 -2.639,-3.798 -5.957,-5.028 -4.44,-1.642 -9.488,-2.449 -12.733,-2.791 l -0.027,-0.002 z m 17.137,-13.705 c -1.67,-0.626 -3.553,-0.905 -6.108,-0.905 -5.341,0 -9.045,2.698 -10.433,7.598 l -0.008,0.027 0.029,0.003 c 4.323,0.577 12.262,1.273 18.92,4.879 3.24,1.756 5.613,3.796 6.707,6.75 0.856,2.313 1.221,5.198 0.49,7.832 -0.988,3.564 -2.646,5.644 -5.238,7.37 -2.937,1.955 -6.978,2.625 -11.746,2.625 -2.894,0 -5.521,-0.503 -7.801,-1.496 -2.252,-0.979 -4.183,-2.439 -5.742,-4.345 -1.557,-1.9 -2.75,-4.253 -3.549,-6.99 -0.806,-2.762 -1.215,-5.935 -1.215,-9.427 0,-7.783 1.901,-13.635 5.651,-17.399 3.275,-3.285 7.908,-4.953 13.769,-4.953 3.702,0 6.645,0.548 9.268,1.722 2.336,1.047 4.463,2.607 6.898,5.056 l -5.148,4.869 c -1.549,-1.561 -3.059,-2.584 -4.744,-3.216"
             id="path138"
             style="fill:#231f20;fill-opacity:1;fill-rule:nonzero;stroke:none" /></g></g></g><g
       id="g140"><g
         clip-path="url(#clipPath144)"
         id="g142"><path
           d="m 472.146,182.755 -6.795,0.601 c -4.59,0.431 -5.946,2.404 -5.946,4.988 0,3.266 2.631,5.584 7.817,5.584 4.076,0 7.896,-0.858 10.617,-3.183 l 5.439,5.59 c -3.99,3.522 -9.515,4.897 -15.974,4.897 -9.004,0 -16.227,-4.81 -16.227,-13.317 0,-7.654 4.672,-11.348 12.742,-12.036 l 6.883,-0.598 c 4.166,-0.35 5.779,-2.237 5.779,-5.165 0,-4.119 -4.164,-6.01 -9.431,-6.01 -4.25,0 -8.92,0.945 -12.408,4.555 l -5.69,-5.759 c 5.096,-5.074 11.043,-6.28 18.098,-6.28 10.279,0 17.926,4.736 17.926,13.843 0,7.736 -4.756,11.604 -12.83,12.29"
           id="path148"
           style="fill:#231f20;fill-opacity:1;fill-rule:nonzero;stroke:none" /><path
           d="m 242.766,90.973 c -0.013,-3.099 -2.913,-6.46 -8.103,-6.46 -7.055,0 -10.965,4.676 -10.965,12.068 l 0,6.027 c 0.088,2.634 0.255,3.909 1.105,5.865 1.362,3.229 4.914,4.836 8.607,4.836 5.307,0 9.339,-1.709 9.356,-6.209 0.012,-4.031 0.014,-12.095 0,-16.127 z m 0,28.441 c -2.472,1.088 -5.577,1.718 -9.378,1.718 -12.496,0 -18.266,-8.071 -18.266,-22.005 0,-16.396 8.576,-22.093 19.373,-22.093 4.012,0 7.068,1.359 9.713,3.292 l 7.22,-3.292 0,60.919 -8.662,0 0,-18.539"
           id="path150"
           style="fill:#231f20;fill-opacity:1;fill-rule:nonzero;stroke:none" /><path
           d="m 331.034,89.678 0,48.275 -8.665,0 0,-48.781 c 0,-6.384 3.569,-11.912 11.823,-11.912 l 18.469,0 0,7.397 -16.949,0 c -3.486,0 -4.678,1.708 -4.678,5.021"
           id="path152"
           style="fill:#231f20;fill-opacity:1;fill-rule:nonzero;stroke:none" /><path
           d="m 389.351,90.216 0,47.737 -8.664,0 0,-48.266 c 0,-6.654 3.449,-12.425 12.056,-12.425 l 4.604,0 0,7.717 -3.116,0 c -3.638,0 -4.88,1.78 -4.88,5.237"
           id="path154"
           style="fill:#231f20;fill-opacity:1;fill-rule:nonzero;stroke:none" /><path
           d="m 413.856,90.216 0,47.737 -8.662,0 0,-48.266 c 0,-6.654 3.448,-12.425 12.055,-12.425 l 4.604,0 0,7.717 -3.116,0 c -3.636,0 -4.881,1.78 -4.881,5.237"
           id="path156"
           style="fill:#231f20;fill-opacity:1;fill-rule:nonzero;stroke:none" /><path
           d="m 567.72,220.155 -19.787,-9.027 0,-7.57 19.787,9.029 0,7.568"
           id="path158"
           style="fill:#231f20;fill-opacity:1;fill-rule:nonzero;stroke:none" /></g></g></g></svg>