<?xml version="1.0" encoding="UTF-8" standalone="no"?>
<!-- Created with Inkscape (http://www.inkscape.org/) -->

<svg
   xmlns:dc="http://purl.org/dc/elements/1.1/"
   xmlns:cc="http://creativecommons.org/ns#"
   xmlns:rdf="http://www.w3.org/1999/02/22-rdf-syntax-ns#"
   xmlns:svg="http://www.w3.org/2000/svg"
   xmlns="http://www.w3.org/2000/svg"
   xmlns:sodipodi="http://sodipodi.sourceforge.net/DTD/sodipodi-0.dtd"
   xmlns:inkscape="http://www.inkscape.org/namespaces/inkscape"
   id="svg2"
   xml:space="preserve"
   height="530.67664"
   width="1000"
   version="1.1"
   inkscape:version="0.48.1 r9760"
   sodipodi:docname="logo-lifl.svg"><sodipodi:namedview
     pagecolor="#ffffff"
     bordercolor="#666666"
     borderopacity="1"
     objecttolerance="10"
     gridtolerance="10"
     guidetolerance="10"
     inkscape:pageopacity="0"
     inkscape:pageshadow="2"
     inkscape:window-width="1672"
     inkscape:window-height="1023"
     id="namedview23"
     showgrid="false"
     fit-margin-top="0"
     fit-margin-left="0"
     fit-margin-right="0"
     fit-margin-bottom="0"
     inkscape:zoom="1.5188157"
     inkscape:cx="500"
     inkscape:cy="265.33832"
     inkscape:window-x="0"
     inkscape:window-y="19"
     inkscape:window-maximized="0"
     inkscape:current-layer="svg2" /><metadata
     id="metadata8"><rdf:RDF><cc:Work
         rdf:about=""><dc:format>image/svg+xml</dc:format><dc:type
           rdf:resource="http://purl.org/dc/dcmitype/StillImage" /><dc:title /></cc:Work></rdf:RDF></metadata><defs
     id="defs6"><clipPath
       id="clipPath18"
       clipPathUnits="userSpaceOnUse"><path
         id="path20"
         d="M 0,426.89 0,0 H 749.02 V 426.89 H 0 z"
         inkscape:connector-curvature="0" /></clipPath></defs><g
     id="g3000"
     transform="matrix(4.4715215,0,0,4.4715215,0,-0.00471358)"><g
       transform="matrix(1.25,0,0,-1.25,0,128.0673)"
       id="g10"><g
         transform="scale(0.24,0.24)"
         id="g12"><g
           id="g14"><g
             clip-path="url(#clipPath18)"
             id="g16"><path
               stroke-miterlimit="4"
               d="m 407.85,322.51 0,-229.4"
               id="path22"
               inkscape:connector-curvature="0"
               style="fill:none;stroke:#4fb5e1;stroke-width:1.83255005;stroke-linecap:butt;stroke-linejoin:miter;stroke-miterlimit:4;stroke-dasharray:none" /><path
               stroke-miterlimit="4"
               d="m 379.23,113.25 86.207,0"
               id="path24"
               inkscape:connector-curvature="0"
               style="fill:none;stroke:#4fb5e1;stroke-width:1.83255005;stroke-linecap:butt;stroke-linejoin:miter;stroke-miterlimit:4;stroke-dasharray:none" /><path
               d="m 140.56,253.64 24.907,0 -45.535,-140.16 -24.911,0 45.539,140.16 z m 18.672,57.461 24.911,0 -11.442,-35.204 -24.91,0 11.441,35.204"
               id="path26"
               inkscape:connector-curvature="0"
               style="fill:#4f4c4c;fill-rule:nonzero" /><path
               d="m 232.22,253.64 54.472,0 -7.121,-21.918 -54.472,0 -38.418,-118.24 -24.91,0 38.418,118.24 -26.239,0 7.125,21.918 26.235,0 5.179,15.941 c 10.582,32.551 40.973,52.48 70.532,52.48 13.613,0 25.152,-3.328 32.828,-7.308 l -13.56,-21.25 c -5.117,2.652 -14.442,5.641 -24.406,5.641 -17.934,0 -34.559,-11.289 -41.141,-31.551 l -4.535,-13.949"
               id="path28"
               inkscape:connector-curvature="0"
               style="fill:#4f4c4c;fill-rule:nonzero" /><path
               d="m 330.93,323.39 24.91,0 -56.332,-173.37 c -3.129,-9.637 0.996,-13.29 9.305,-13.29 h 14.609 l -7.555,-23.25 h -22.582 c -16.605,0 -26.672,11.961 -20.519,30.891 l 58.164,179.02"
               id="path30"
               inkscape:connector-curvature="0"
               style="fill:#4f4c4c;fill-rule:nonzero" /><g
               transform="scale(4.16667,4.16667)"
               id="g32"><text
   font-variant="normal"
   transform="matrix(1,0,0,-1,104.188,69.1425)"
   font-weight="normal"
   font-size="11px"
   id="text34"
   style="font-size:11px;font-variant:normal;font-weight:normal;fill:#4f4c4c;fill-rule:nonzero;font-family:Russell Square Com"><tspan
     x="0 5.5107417 12.044922 18.579102 25.112301 28.995102 35.529282 39.213848 45.748028 48.817371 52.700169"
     y="0"
     style="writing-mode:lr-tb"
     id="tspan36">Laboratoire</tspan><tspan
     x="0 6.5341802 9.1953135 12.473634 19.007814 22.48341 29.017576 32.900391 42.690422 49.224606 52.909168 55.977531 62.511711 69.045876"
     y="12"
     style="writing-mode:lr-tb"
     id="tspan38">d'Informatique</tspan><tspan
     x="0 6.3359394 12.87012 19.403318 25.9375 32.471664 42.261715 48.794899 55.329079 59.013645 65.547829 68.617165"
     y="24"
     style="writing-mode:lr-tb"
     id="tspan40">Fondamentale</tspan><tspan
     x="0 6.5341802 13.067388 16.752934 22.263676 25.332037 28.401379 31.469725"
     y="36"
     style="writing-mode:lr-tb"
     id="tspan42">de Lille</tspan></text>

</g><path
               d="m 107.2,379.3 c 0,0 -30.64,-123.7 -89.656,-252.52 0,0 -28.938,-64.113 -12.484,-78.875 0,0 14.188,-22.125 64.121,-15.312 0,0 43.504,9.3398 129.38,39.152 0,0 50.5,19.859 87.953,10.211 0,0 -2.657,33.199 -95.328,10.215 0,0 -78.5,-24.016 -118.6,-32.34 0,0 -53.906,-15.891 -34.613,31.207 0,0 110.09,256.48 101.57,312.09 0,0 -1.133,26.867 -24.398,23.461 0,0 -10.782,-3.602 -7.375,-16.653 3.402,-13.05 0.937,-2.711 0.937,-2.711 0,0 3.602,-8.636 -1.508,-27.929"
               id="path44"
               inkscape:connector-curvature="0"
               style="fill:#66ccd8;fill-rule:nonzero" /></g></g></g></g></g></svg>