<?xml version="1.0" encoding="UTF-8" standalone="no"?>
<!-- Created with Inkscape (http://www.inkscape.org/) -->

<svg
   xmlns:dc="http://purl.org/dc/elements/1.1/"
   xmlns:cc="http://creativecommons.org/ns#"
   xmlns:rdf="http://www.w3.org/1999/02/22-rdf-syntax-ns#"
   xmlns:svg="http://www.w3.org/2000/svg"
   xmlns="http://www.w3.org/2000/svg"
   xmlns:sodipodi="http://sodipodi.sourceforge.net/DTD/sodipodi-0.dtd"
   xmlns:inkscape="http://www.inkscape.org/namespaces/inkscape"
   width="825.37097"
   height="160.25639"
   id="svg2"
   version="1.1"
   inkscape:version="0.48.2 r9819"
   sodipodi:docname="logo_SPIRALS.svg">
  <defs
     id="defs4">
    <filter
       inkscape:collect="always"
       id="filter4684"
       color-interpolation-filters="sRGB">
      <feGaussianBlur
         inkscape:collect="always"
         stdDeviation="0.34414025"
         id="feGaussianBlur4686" />
    </filter>
  </defs>
  <sodipodi:namedview
     id="base"
     pagecolor="#ffffff"
     bordercolor="#666666"
     borderopacity="1.0"
     inkscape:pageopacity="0"
     inkscape:pageshadow="2"
     inkscape:zoom="1"
     inkscape:cx="383.34464"
     inkscape:cy="38.670779"
     inkscape:document-units="px"
     inkscape:current-layer="layer1"
     showgrid="false"
     inkscape:window-width="1440"
     inkscape:window-height="809"
     inkscape:window-x="-8"
     inkscape:window-y="22"
     inkscape:window-maximized="1"
     inkscape:snap-global="false"
     showguides="false"
     inkscape:guide-bbox="true"
     fit-margin-top="0"
     fit-margin-left="0"
     fit-margin-right="0"
     fit-margin-bottom="0">
    <inkscape:grid
       type="xygrid"
       id="grid3757"
       empspacing="5"
       visible="true"
       enabled="true"
       snapvisiblegridlinesonly="true" />
  </sodipodi:namedview>
  <metadata
     id="metadata7">
    <rdf:RDF>
      <cc:Work
         rdf:about="">
        <dc:format>image/svg+xml</dc:format>
        <dc:type
           rdf:resource="http://purl.org/dc/dcmitype/StillImage" />
        <dc:title />
      </cc:Work>
    </rdf:RDF>
  </metadata>
  <g
     inkscape:label="Layer 1"
     inkscape:groupmode="layer"
     id="layer1"
     transform="translate(3314.5224,-6768.1906)">
    <path
       d="m -2737.9174,660.625 c 0,89.82059 -72.814,162.63457 -162.6346,162.63457 -89.8206,0 -162.6346,-72.81398 -162.6346,-162.63457 0,-89.82059 72.814,-162.63457 162.6346,-162.63457 89.8206,0 162.6346,72.81398 162.6346,162.63457 z"
       sodipodi:ry="162.63457"
       sodipodi:rx="162.63457"
       sodipodi:cy="660.625"
       sodipodi:cx="-2900.552"
       id="path4653"
       style="fill:#b6e70f;fill-opacity:0.82352941;fill-rule:nonzero;stroke:none"
       sodipodi:type="arc"
       transform="matrix(0.39723995,0,0,0.39723995,-2097.7023,6577.049)" />
    <path
       d="m -2737.9174,660.625 c 0,89.82059 -72.814,162.63457 -162.6346,162.63457 -89.8206,0 -162.6346,-72.81398 -162.6346,-162.63457 0,-89.82059 72.814,-162.63457 162.6346,-162.63457 89.8206,0 162.6346,72.81398 162.6346,162.63457 z"
       sodipodi:ry="162.63457"
       sodipodi:rx="162.63457"
       sodipodi:cy="660.625"
       sodipodi:cx="-2900.552"
       id="path4655"
       style="fill:#31b2e4;fill-opacity:0.65098039;fill-rule:nonzero;stroke:none"
       sodipodi:type="arc"
       transform="matrix(0.39723995,0,0,0.39723995,-2080.2386,6570.3689)" />
    <path
       transform="matrix(0.39723995,0,0,0.39723995,-2096.1912,6598.3906)"
       sodipodi:type="arc"
       style="fill:#670fe7;fill-opacity:0.6;fill-rule:nonzero;stroke:none"
       id="path4649"
       sodipodi:cx="-2900.552"
       sodipodi:cy="660.625"
       sodipodi:rx="162.63457"
       sodipodi:ry="162.63457"
       d="m -2737.9174,660.625 c 0,89.82059 -72.814,162.63457 -162.6346,162.63457 -89.8206,0 -162.6346,-72.81398 -162.6346,-162.63457 0,-89.82059 72.814,-162.63457 162.6346,-162.63457 89.8206,0 162.6346,72.81398 162.6346,162.63457 z" />
    <path
       transform="matrix(0.39723995,0,0,0.39723995,-2069.2839,6601.4154)"
       sodipodi:type="arc"
       style="fill:#f39a06;fill-opacity:0.80392157;fill-rule:nonzero;stroke:none"
       id="path4651"
       sodipodi:cx="-2900.552"
       sodipodi:cy="660.625"
       sodipodi:rx="162.63457"
       sodipodi:ry="162.63457"
       d="m -2737.9174,660.625 c 0,89.82059 -72.814,162.63457 -162.6346,162.63457 -89.8206,0 -162.6346,-72.81398 -162.6346,-162.63457 0,-89.82059 72.814,-162.63457 162.6346,-162.63457 89.8206,0 162.6346,72.81398 162.6346,162.63457 z" />
    <g
       style="font-size:163.31407166px;font-style:normal;font-variant:normal;font-weight:normal;font-stretch:normal;text-align:start;line-height:125%;letter-spacing:0px;word-spacing:0px;writing-mode:lr-tb;text-anchor:start;fill:#303030;fill-opacity:1;stroke:none;font-family:Ubuntu Light;-inkscape-font-specification:'Ubuntu Light,'"
       id="text4645"
       transform="matrix(1.0467973,0,0,1.0467973,136.37461,-322.55582)">
      <path
         d="m -3091.7519,6896.188 c 7.4028,0 12.7921,-1.2526 16.1679,-3.7579 3.3758,-2.5052 5.0637,-6.0438 5.0637,-10.6158 0,-2.7212 -0.5723,-5.062 -1.7169,-7.0224 -1.1447,-1.9603 -2.7778,-3.7296 -4.8993,-5.3079 -2.1215,-1.5782 -4.7065,-3.0476 -7.755,-4.4083 -3.0485,-1.3606 -6.5331,-2.6938 -10.4538,-3.9996 -3.9208,-1.4154 -7.7044,-2.9671 -11.351,-4.655 -3.6466,-1.6879 -6.8579,-3.7836 -9.6339,-6.2873 -2.7761,-2.5035 -5.0081,-5.498 -6.696,-8.9836 -1.6879,-3.4853 -2.5318,-7.6768 -2.5318,-12.5745 0,-10.2336 3.5386,-18.2635 10.6158,-24.0899 7.0772,-5.8261 16.7128,-8.7392 28.9069,-8.7393 7.0772,1e-4 13.3644,0.79 18.8618,2.3698 5.4972,1.5801 9.8241,3.2954 12.9807,5.146 l -6.3695,16.6563 c -3.7015,-2.0666 -7.7568,-3.6448 -12.1658,-4.7347 -4.4092,-1.0898 -8.9546,-1.6347 -13.6361,-1.6348 -5.5522,1e-4 -9.8799,1.1431 -12.9832,3.429 -3.1034,2.2861 -4.6551,5.499 -4.655,9.639 -1e-4,2.502 0.5174,4.6517 1.5525,6.4492 1.0349,1.7976 2.5052,3.4041 4.4108,4.8195 1.9055,1.4155 4.1374,2.7221 6.6959,3.9198 2.5584,1.1979 5.361,2.3401 8.4079,3.4265 5.3361,1.9604 10.0999,3.9474 14.2915,5.9608 4.1914,2.0136 7.73,4.4092 10.6158,7.1869 2.8856,2.7777 5.0902,6.0447 6.6137,9.8009 1.5234,3.7563 2.2851,8.3008 2.2852,13.6336 -10e-5,10.2337 -3.6201,18.1549 -10.8601,23.7635 -7.2401,5.6086 -17.8276,8.4129 -31.7627,8.4129 -4.6816,0 -8.9553,-0.2999 -12.8212,-0.8996 -3.8659,-0.5998 -7.2957,-1.3349 -10.2894,-2.2054 -2.9937,-0.8706 -5.5795,-1.7685 -7.7575,-2.6938 -2.178,-0.9254 -3.9199,-1.7702 -5.2257,-2.5344 l 6.0406,-16.8208 c 2.9405,1.6347 6.9152,3.2686 11.9241,4.9017 5.0088,1.6331 11.0519,2.4496 18.1291,2.4496 z"
         style="fill:#303030;fill-opacity:1"
         id="path4741"
         inkscape:connector-curvature="0" />
      <path
         d="m -2999.1451,6797.2167 c 16.4403,1e-4 29.0431,2.9947 37.8082,8.9836 8.765,5.9891 13.1476,15.3531 13.1477,28.092 -1e-4,6.642 -1.1705,12.3304 -3.5112,17.0651 -2.3409,4.7348 -5.7433,8.5998 -10.2071,11.5951 -4.4641,2.9954 -9.9082,5.2008 -16.3324,6.6162 -6.4244,1.4155 -13.7732,2.1232 -22.0465,2.1232 l -10.2869,0 0,39.8467 -20.5787,0 0,-111.5458 c 4.7912,-1.0864 10.0991,-1.8207 15.9237,-2.2029 5.8245,-0.382 11.1856,-0.5731 16.0832,-0.5732 z m 1.4703,17.8027 c -5.2266,1e-4 -9.5261,0.1629 -12.8985,0.4884 l 0,38.5459 9.9579,0 c 9.9081,10e-5 17.5302,-1.3888 22.8664,-4.1666 5.3361,-2.7776 8.0041,-8.0307 8.0042,-15.7592 -1e-4,-3.7014 -0.7078,-6.8039 -2.1232,-9.3076 -1.4155,-2.5035 -3.3758,-4.463 -5.881,-5.8785 -2.5053,-1.4154 -5.4725,-2.423 -8.9013,-3.0228 -3.4291,-0.5996 -7.1039,-0.8995 -11.0245,-0.8996 z"
         style="fill:#303030;fill-opacity:1"
         id="path4743"
         inkscape:connector-curvature="0" />
      <path
         d="m -2929.3997,6798.363 20.5787,0 0,113.1756 -20.5787,0 z"
         style="fill:#303030;fill-opacity:1"
         id="path4745"
         inkscape:connector-curvature="0" />
      <path
         d="m -2850.3642,6797.2167 c 16.334,1e-4 28.8287,2.9947 37.4843,8.9836 8.6553,5.9891 12.983,15.1355 12.9831,27.4391 -1e-4,15.3507 -7.5673,25.7472 -22.7019,31.1896 2.07,2.5053 4.4108,5.5546 7.0224,9.148 2.6115,3.5935 5.2788,7.486 8.0018,11.6774 2.7228,4.1916 5.336,8.4919 7.8397,12.901 2.5035,4.4091 4.7355,8.7369 6.696,12.9832 l -23.0259,0 c -2.0701,-3.9207 -4.3029,-7.868 -6.6984,-11.8419 -2.3957,-3.9738 -4.8179,-7.8389 -7.2666,-11.5952 -2.4489,-3.7562 -4.8711,-7.2948 -7.2666,-10.6158 -2.3957,-3.3209 -4.6285,-6.2872 -6.6984,-8.8988 -1.5219,0.1097 -2.8277,0.1645 -3.9174,0.1645 -1.0899,0 -2.1249,0 -3.105,0 l -9.958,0 0,42.7872 -20.5787,0 0,-111.5458 c 5.0072,-1.0864 10.3417,-1.8207 16.0035,-2.2029 5.6617,-0.382 10.7237,-0.5731 15.1861,-0.5732 z m 1.4702,17.8027 c -4.3527,1e-4 -8.3797,0.1629 -12.0811,0.4884 l 0,36.5822 8.9811,0 c 5.0072,1e-4 9.4163,-0.2715 13.2274,-0.8149 3.811,-0.5431 6.9958,-1.5225 9.5542,-2.938 2.5584,-1.4154 4.4905,-3.3209 5.7964,-5.7166 1.3057,-2.3955 1.9586,-5.444 1.9587,-9.1455 -10e-5,-3.4854 -0.653,-6.4251 -1.9587,-8.8191 -1.3059,-2.3939 -3.184,-4.2986 -5.6344,-5.7141 -2.4505,-1.4154 -5.3628,-2.423 -8.7368,-3.0228 -3.3742,-0.5996 -7.0765,-0.8995 -11.1068,-0.8996 z"
         style="fill:#303030;fill-opacity:1"
         id="path4747"
         inkscape:connector-curvature="0" />
      <path
         d="m -2701.8076,6911.5386 c -1.5252,-4.4623 -3.1043,-8.8714 -4.7373,-13.2274 -1.6331,-4.356 -3.2122,-8.8199 -4.7372,-13.3919 l -47.6865,0 c -1.5251,4.572 -3.0767,9.0625 -4.655,13.4716 -1.5782,4.4092 -3.1299,8.7917 -4.655,13.1477 l -21.3911,0 c 4.2463,-12.0844 8.275,-23.2443 12.0861,-33.4797 3.811,-10.2353 7.5399,-19.9258 11.1865,-29.0714 3.6465,-9.1455 7.2665,-17.8549 10.86,-26.1283 3.5934,-8.2733 7.2956,-16.4387 11.1067,-24.4962 l 19.4324,0 c 3.811,8.0575 7.5133,16.2229 11.1068,24.4962 3.5933,8.2734 7.2133,16.9828 10.86,26.1283 3.6465,9.1456 7.4027,18.8361 11.2687,29.0714 3.8658,10.2354 7.9202,21.3953 12.1633,33.4797 z m -33.3177,-91.291 c -2.502,5.7681 -5.3595,12.7897 -8.5724,21.0646 -3.2131,8.2751 -6.5606,17.257 -10.0427,26.9458 l 37.2351,0 c -3.4855,-9.6888 -6.8613,-18.7247 -10.1274,-27.1078 -3.2662,-8.3829 -6.0971,-15.3504 -8.4926,-20.9026 z"
         style="fill:#303030;fill-opacity:1"
         id="path4749"
         inkscape:connector-curvature="0" />
      <path
         d="m -2593.7606,6893.7359 0,17.8027 -71.5296,0 0,-113.1756 20.5787,0 0,95.3729 z"
         style="fill:#303030;fill-opacity:1"
         id="path4751"
         inkscape:connector-curvature="0" />
      <path
         d="m -2550.774,6896.188 c 7.4027,0 12.792,-1.2526 16.1679,-3.7579 3.3757,-2.5052 5.0636,-6.0438 5.0637,-10.6158 -1e-4,-2.7212 -0.5724,-5.062 -1.717,-7.0224 -1.1447,-1.9603 -2.7778,-3.7296 -4.8992,-5.3079 -2.1216,-1.5782 -4.7066,-3.0476 -7.755,-4.4083 -3.0486,-1.3606 -6.5332,-2.6938 -10.4539,-3.9996 -3.9207,-1.4154 -7.7044,-2.9671 -11.3509,-4.655 -3.6466,-1.6879 -6.8579,-3.7836 -9.634,-6.2873 -2.7761,-2.5035 -5.008,-5.498 -6.6959,-8.9836 -1.6879,-3.4853 -2.5319,-7.6768 -2.5319,-12.5745 0,-10.2336 3.5386,-18.2635 10.6158,-24.0899 7.0772,-5.8261 16.7129,-8.7392 28.907,-8.7393 7.0771,1e-4 13.3644,0.79 18.8617,2.3698 5.4972,1.5801 9.8241,3.2954 12.9807,5.146 l -6.3695,16.6563 c -3.7015,-2.0666 -7.7567,-3.6448 -12.1658,-4.7347 -4.4092,-1.0898 -8.9546,-1.6347 -13.6361,-1.6348 -5.5522,1e-4 -9.8799,1.1431 -12.9832,3.429 -3.1034,2.2861 -4.655,5.499 -4.655,9.639 0,2.502 0.5175,4.6517 1.5525,6.4492 1.035,1.7976 2.5052,3.4041 4.4108,4.8195 1.9055,1.4155 4.1375,2.7221 6.6959,3.9198 2.5584,1.1979 5.3611,2.3401 8.408,3.4265 5.3361,1.9604 10.0999,3.9474 14.2914,5.9608 4.1915,2.0136 7.7301,4.4092 10.6159,7.1869 2.8856,2.7777 5.0902,6.0447 6.6137,9.8009 1.5233,3.7563 2.285,8.3008 2.2851,13.6336 -1e-4,10.2337 -3.6201,18.1549 -10.86,23.7635 -7.2401,5.6086 -17.8277,8.4129 -31.7627,8.4129 -4.6817,0 -8.9554,-0.2999 -12.8213,-0.8996 -3.8659,-0.5998 -7.2956,-1.3349 -10.2893,-2.2054 -2.9937,-0.8706 -5.5796,-1.7685 -7.7575,-2.6938 -2.178,-0.9254 -3.9199,-1.7702 -5.2257,-2.5344 l 6.0405,-16.8208 c 2.9406,1.6347 6.9153,3.2686 11.9241,4.9017 5.0089,1.6331 11.0519,2.4496 18.1292,2.4496 z"
         style="fill:#303030;fill-opacity:1"
         id="path4753"
         inkscape:connector-curvature="0" />
    </g>
    <path
       sodipodi:type="arc"
       style="fill:#ba0000;fill-opacity:0.61176471;fill-rule:nonzero;stroke:none"
       id="path4657"
       sodipodi:cx="-2900.552"
       sodipodi:cy="660.625"
       sodipodi:rx="162.63457"
       sodipodi:ry="162.63457"
       d="m -2737.9174,660.625 c 0,89.82059 -72.814,162.63457 -162.6346,162.63457 -89.8206,0 -162.6346,-72.81398 -162.6346,-162.63457 0,-89.82059 72.814,-162.63457 162.6346,-162.63457 89.8206,0 162.6346,72.81398 162.6346,162.63457 z"
       transform="matrix(0.39723995,0,0,0.39723995,-2070.8529,6579.4125)" />
    <path
       id="path4682"
       d="m -3181.1562,6840.4688 c -19.0064,0 -34.4063,15.3998 -34.4063,34.4062 0,19.0063 15.3999,34.4062 34.4063,34.4062 19.0063,0 34.4374,-15.3999 34.4374,-34.4062 0,-19.0064 -15.4311,-34.4062 -34.4374,-34.4062 z m -3,7.0937 c 15.8353,0 28.6874,12.8521 28.6874,28.6875 0,15.8351 -12.8521,28.6562 -28.6874,28.6562 -6.766,0 -12.9714,-2.3305 -17.875,-6.25 4.2302,3.1522 9.4751,5.0313 15.1562,5.0313 14.023,0 25.375,-11.3832 25.375,-25.4063 0,-14.0232 -11.352,-25.375 -25.375,-25.375 -14.0233,0 -25.4062,11.3518 -25.4062,25.375 0,3.0434 0.5494,5.9834 1.5312,8.6876 -1.3374,-3.3133 -2.0625,-6.9263 -2.0625,-10.7188 0,-15.8354 12.821,-28.6875 28.6563,-28.6875 z m -6.0313,10.5937 c 0.3606,-0.018 0.7286,0 1.0937,0 11.6834,0 21.1563,9.4728 21.1563,21.1563 0,11.6833 -9.4728,21.125 -21.1563,21.125 -3.8861,0 -7.5268,-1.0464 -10.6562,-2.875 2.2803,1.1045 4.8275,1.75 7.5312,1.75 9.5685,0 17.3438,-7.7752 17.3438,-17.3437 0,-9.5686 -7.7753,-17.3126 -17.3438,-17.3126 -9.5684,0 -17.3124,7.744 -17.3124,17.3126 0,1.794 0.275,3.5287 0.7812,5.1562 -0.9666,-2.423 -1.5,-5.0447 -1.5,-7.8125 0,-11.3184 8.8851,-20.5897 20.0625,-21.1563 z m -3.5313,10.0626 c 7.9721,0 14.4376,6.4654 14.4376,14.4374 0,7.972 -6.4656,14.4376 -14.4376,14.4376 -1.4844,0 -2.9335,-0.2402 -4.2812,-0.6563 0.2045,0.012 0.4174,0.031 0.625,0.031 5.4915,0 9.9375,-4.4461 9.9375,-9.9376 0,-5.4916 -4.446,-9.9687 -9.9375,-9.9687 -1.1679,0 -2.2718,0.2238 -3.3125,0.5937 -0.1295,-0.4448 -0.7917,-2.7329 -1,-2.7187 -0.3473,0.024 -2.0662,2.7408 -2.2813,3.0625 -0.1344,0.201 -1.3706,1.9075 -1.2187,2.1562 0.2431,0.3981 3.1775,1.4532 3.5313,1.5938 0.221,0.088 2.1536,0.9511 2.2187,0.6875 0.069,-0.2783 -0.3621,-1.7776 -0.75,-3.0625 0.6231,-0.1498 1.2685,-0.25 1.9375,-0.25 4.5754,0 8.2812,3.7061 8.2812,8.2812 0,4.5753 -3.7059,8.2813 -8.2812,8.2813 -1.8727,0 -3.5814,-0.6084 -4.9688,-1.6563 -3.024,-2.6457 -4.9374,-6.541 -4.9374,-10.875 0,-7.9719 6.4654,-14.4374 14.4374,-14.4374 z"
       style="fill:#000000;fill-opacity:1;fill-rule:nonzero;stroke:none;filter:url(#filter4684)"
       inkscape:connector-curvature="0"
       transform="matrix(1.7514045,0,0,1.7514045,2334.6723,-5187.7394)" />
    <path
       style="fill:#ffffff;fill-opacity:1;fill-rule:nonzero;stroke:none"
       d="m -3236.8189,6792.6884 c -33.288,0 -60.2595,26.9714 -60.2595,60.2593 0,33.2877 26.9715,60.2592 60.2595,60.2592 33.2877,0 60.3137,-26.9715 60.3137,-60.2592 0,-33.2879 -27.026,-60.2593 -60.3137,-60.2593 z m -5.2543,12.424 c 27.734,0 50.2432,22.5092 50.2432,50.2435 0,27.7336 -22.5092,50.1886 -50.2432,50.1886 -11.85,0 -22.7182,-4.0817 -31.3064,-10.9464 7.4088,5.5208 16.5947,8.8119 26.5448,8.8119 24.5598,0 44.4418,-19.9366 44.4418,-44.4967 0,-24.5603 -19.882,-44.4418 -44.4418,-44.4418 -24.5605,0 -44.4966,19.8815 -44.4966,44.4418 0,5.3301 0.9622,10.4793 2.6817,15.2156 -2.3424,-5.803 -3.6123,-12.1309 -3.6123,-18.773 0,-27.7343 22.4547,-50.2435 50.1888,-50.2435 z m -10.5632,18.5538 c 0.6315,-0.03 1.276,0 1.9155,0 20.4623,0 37.0531,16.5907 37.0531,37.0533 0,20.4621 -16.5906,36.9985 -37.0531,36.9985 -6.8062,0 -13.1825,-1.8328 -18.6633,-5.0354 3.9937,1.9344 8.4548,3.065 13.1901,3.065 16.7583,0 30.376,-13.6176 30.376,-30.3758 0,-16.7585 -13.6177,-30.3214 -30.376,-30.3214 -16.7581,0 -30.321,13.5629 -30.321,30.3214 0,3.142 0.4816,6.1801 1.3682,9.0306 -1.693,-4.2438 -2.6271,-8.8354 -2.6271,-13.6829 0,-19.8231 15.5614,-36.0609 35.1376,-37.0533 z m -6.1848,17.6238 c 13.9625,0 25.2862,11.3235 25.2862,25.2858 0,13.962 -11.3239,25.2859 -25.2862,25.2859 -2.5999,0 -5.1376,-0.4205 -7.4982,-1.1493 0.3582,0.021 0.7312,0.054 1.0946,0.054 9.618,0 17.4047,-7.7871 17.4047,-17.4048 0,-9.6181 -7.7867,-17.4593 -17.4047,-17.4593 -2.0453,0 -3.9788,0.3921 -5.8014,1.0397 -0.2269,-0.7789 -1.3865,-4.7862 -1.7515,-4.7613 -0.6081,0.042 -3.6186,4.8001 -3.9954,5.3635 -0.2354,0.3522 -2.4005,3.341 -2.1344,3.7764 0.4257,0.6972 5.5651,2.5452 6.1847,2.7915 0.3871,0.1549 3.7718,1.6656 3.8859,1.2039 0.1204,-0.4872 -0.6343,-3.1132 -1.3135,-5.3636 1.0911,-0.2623 2.2215,-0.4378 3.3932,-0.4378 8.0135,0 14.5039,6.4908 14.5039,14.5037 0,8.0133 -6.4906,14.5039 -14.5039,14.5039 -3.2799,0 -6.2724,-1.0655 -8.7024,-2.9007 -5.2962,-4.6338 -8.6473,-11.456 -8.6473,-19.0466 0,-13.962 11.3235,-25.2858 25.2857,-25.2858 z"
       id="path4663"
       inkscape:connector-curvature="0" />
  </g>
</svg>
